<?xml version="1.0" encoding="utf-8"?>
<!-- Generator: Adobe Illustrator 25.0.1, SVG Export Plug-In . SVG Version: 6.00 Build 0)  -->
<svg version="1.1" id="Layer_1" xmlns="http://www.w3.org/2000/svg" xmlns:xlink="http://www.w3.org/1999/xlink" x="0px" y="0px"
	 viewBox="0 0 1910.3 648" style="enable-background:new 0 0 1910.3 648;" xml:space="preserve">
<style type="text/css">
	.st0{fill:#FFFFFF;}
</style>
<g>
	<path class="st0" d="M1736.1,484.4c8-8.9,16.2-17.6,23.8-26.8c16.9-20.4,33.7-40.8,50.2-61.5c10-12.4,21.3-23.9,28.9-38.1
		c6.8-12.7,2.5-20.4-12-21.6c-0.5,0-1,0-1.5-0.1c-14.9-1-28.6,3.6-41.8,9.7c-22.2,10.3-42.8,23.6-64.7,34.4
		c-13.6,6.7-27.6,11.5-42.8,12.5c-5.3,0.3-6-0.5-5-5.5c0.9-4.7,2.1-9.4,3.1-14.1c1.5-7,3.1-14,4.3-21c2.1-12.2-5.1-19-17.2-16.3
		c-6.5,1.4-12.8,3.4-18.9,6.2c-20.1,9.1-38.3,21.4-56.3,34c-2.3,1.6-4.7,3.2-7.3,5c-0.5-1.9,0.5-2.5,1-3.2
		c7.1-8.8,14.4-17.4,22.2-25.7c10.1-10.7,20.8-20.6,32.3-29.8c4-3.2,4.6-7,2-10.4c-2.6-3.4-6.2-3.6-10.5-0.5
		c-0.9,0.7-1.8,1.4-2.7,2.3c-12.1,11.7-24.2,23.4-36.3,35.1c-2.5,2.4-5.2,4.6-8.2,6.5c-24.3,14.6-49.5,27.3-75.8,37.8
		c-11.3,4.5-22.7,8.6-34.9,10.1c-5.7,0.7-8.3-1.9-6.9-7.5c0.4-1.6,1.1-3.2,1.9-4.5c9.1-14.2,18-28.4,30.1-40.3
		c1.5-1.5,2.8-3.3,3.9-5.2c1.6-3,1.1-5.9-1.5-8.1c-2.5-2.1-5.3-2-7.8-0.2c-1.6,1.1-3,2.6-4.4,4c-4.6,4.6-8.3,10.2-13.8,13.7
		c-39.9,25.9-80.1,51.4-124.5,69.3c-6.6,2.7-13.2,4.2-20.4,3.3c-4.6-0.6-6.4-2.8-6.1-7.3c0.4-6.9,1.9-13.5,4.4-19.9
		c7.2-18.3,15.4-35.9,35-44.6c2.4-1.1,4.5-2.9,6.7-4.4c67.9-46.2,131.2-98,191-154.2c24.2-22.7,47.9-45.9,67.5-72.8
		c5-6.9,9.5-14.1,12.1-22.3c3.1-9.7-2.2-18.1-12.2-20c-5.1-1-9.8,0.1-14.6,1.9c-18.5,6.9-34.4,18.2-49.7,30.2
		c-44.7,34.8-85.4,73.8-124.1,115c-36.3,38.6-71,78.5-100.4,122.8c-1.5,2.3-3.6,3.9-5.9,5.3c-25.6,15.7-52.5,28.7-80.8,38.9
		c-10.5,3.8-21.3,6.8-32.6,6.3c-7-0.3-9.2-3.1-8.1-10c0.8-5.1,3-9.8,4.7-14.7c2.7-8,6.2-15.9,6.5-24.5c0.3-7.7-4.8-12.5-12.5-12.1
		c-4.6,0.2-9,1.4-12.9,3.7c-11,6.6-22.1,13.1-31.6,21.8c-16.1,14.8-32.1,29.5-48.2,44.2c-0.8,0.7-1.4,2.1-2.9,1
		c4.4-6.1,8.9-12,13-18.2c11.8-17.9,25.4-33.4,44-45.3c32-20.4,61.5-44.5,89.8-69.8c4.4-3.9,9-5.8,15-4.9c4.8,0.7,9.6,0.5,14.5,0.5
		c5.2,0,8.1-2.6,8.1-6.8c0-4.2-2.8-6.7-8.1-7c-2.6-0.1-5.2,0-8.8,0c2.3-2.1,3.7-3.5,5.1-4.8c23.1-21.4,45.4-43.7,66.2-67.3
		c18.8-21.4,37.4-42.9,51.5-67.9c3.6-6.4,6.5-13.1,7.7-20.4c1.5-9.1-4.9-15.7-14.1-14.5c-4.5,0.6-8.5,2.5-12.2,5.2
		c-19.8,14.2-37.8,30.5-55.2,47.5c-37.6,36.7-72.9,75.5-107.4,115c-3.6,4.1-7.4,6-12.9,6c-16.3,0-32.7,0.4-49,0.7
		c-6.6,0.1-13.1,0-20.2,0c0.8-1,1.2-1.6,1.7-2.2c25.5-28.8,51.1-57.5,76.6-86.3c6.1-6.9,12.2-13.7,18.2-20.6c2.8-3.2,3.3-6.5,0-9.8
		c-2.9-2.9-6.6-2.7-10.1,0.7c-1.4,1.4-2.7,3-4,4.5c-32.6,36.7-65.2,73.5-97.8,110.3c-2.5,2.8-5.1,4.6-8.9,4.8
		c-17.9,1.3-35.9,2.6-53.8,4c-32.2,2.5-64.5,4.3-96.6,8.1c-2.5,0.3-5,0.5-7.1,2c-2,1.4-3.5,3.3-3.3,5.8c0.2,2.8,2,4.4,4.5,5.5
		c2.6,1,5.2,0.8,7.9,0.5c36.3-3.1,72.7-6.3,109-9.4c10.3-0.9,20.7-1.7,30.9-2.5c0.5,1.7-0.4,2.2-0.9,2.8
		c-19.5,23.8-39.1,47.6-58.7,71.4c-1.9,2.3-4.3,4.1-6.8,5.9c-21.6,15.5-43.5,30.7-65.9,45.1c-31.9,20.5-64,40.8-98.7,56.4
		c-12,5.4-24.3,10.1-37.7,10.6c-3.6,0.2-5.1-1-5.2-4.7c-0.2-5.6,1.4-10.6,4.6-14.9c8.2-11.1,16.3-22.4,26-32.3
		c19.9-20.4,39.8-40.7,59.6-61.2c9.2-9.5,17.2-19.9,23.8-31.4c4.8-8.4,4.1-14.1-2.4-21.3c-3-3.3-6.3-6.4-9.8-9.3
		c-2.4-2-2.7-3.2-0.4-5.7c9.3-10.3,18.4-20.6,26.5-31.9c4.3-6,8.3-12.1,10.6-19.1c2.8-8.8-2.1-15.1-11.2-14.5
		c-1.8,0.1-3.7,0.3-5.4,0.8c-24.4,7.2-42.4,23.1-57.3,42.9c-4.3,5.8-3.4,12,1.6,17.3c2.4,2.5,5.1,4.9,8,6.7c3.1,2,3.7,3.4,0.7,6.2
		c-5.9,5.4-11.4,11.2-17.2,16.7c-35.8,34-75,62.8-122.2,79.1c-11.8,4.1-23.4,8.6-36.2,8.6c-12.5,0-15.2-3.8-11-15.9
		c0.4-1.2,1-2.5,1.6-3.6c3.4-5.9,6.8-11.8,10.2-17.7c3.2-5.5,6.4-10.9,9.4-16.4c1.7-3.2,1.7-6.7-0.6-9.4c-2.6-3-6.3-3-9.7-1.7
		c-2.2,0.8-4.2,2-6.1,3.3c-3.6,2.4-7.2,4.8-10.7,7.4c-1.4,1-2.3,1.3-3.7-0.2c-6.4-6.5-14.4-7-22.8-5.3c-13.7,2.9-26,8.9-37.5,16.8
		c-31,21.3-65,35.5-101.6,43.5c-8,1.8-16.2,2.3-24.1-0.5c-6.3-2.3-7.9-5.5-5.1-11.5c2.4-5.1,5.3-10,7.9-15c1.6-3.2,3.5-4,7.2-3.1
		c11.3,2.9,21.8,0.9,31.2-6.2c1.7-1.3,3.3-2.8,4.8-4.4c3.9-4.4,5.7-9.5,3-15.2c-2.7-5.6-7.7-7.6-13.5-7.5c-9.9,0.2-19,3.9-25.8,10.5
		c-7.8,7.5-16.7,9.7-26.7,10c-1.3,0-2.7,0.2-4,0.3c-52.8,7.1-105.6,14.2-158.4,21.3c-10.9,1.5-21.9,2.5-33.8,3.9
		c7.1-9.9,12.5-19.6,17.2-29.6c4.1-8.9,7.4-18.2,12.1-26.8c2.9-5.3,6.4-10.2,11.5-13.6c2.9-1.9,5.5-3.9,3.9-7.5
		c-1.7-3.8-5.1-3.7-8.6-2.5c-8.6,2.8-16.7,6.7-24.5,11c-26.9,15-48.3,36.3-67.5,60.1c-8.9,11-18.8,18.2-34.1,19.3
		c-40.4,3-80.7,6.9-121.1,8.1c-12.3,0.3-24.6,0.6-37,0.9c-3.6,0.1-6.4,1.4-6.5,5.3c0,4.1,2.7,5.8,6.6,5.8c1.3,0,2.7,0,4,0
		c21.5-0.6,43-1,64.4-2c39.8-1.8,79.5-5.2,119-9.8c20.1-2.3,38.3-0.1,55.3,12.1c11.1,8,21.8,16.5,33.5,23.5
		c23.5,14.1,48.8,15.1,74.8,9.5c8.8-1.9,17.4-4.3,25.5-8.4c3.4-1.7,4.6-4.4,3.4-7.8c-1.1-3.2-3.5-4.5-7-4c-3.1,0.5-6.2-0.2-9.3-0.8
		c-12.8-2.6-24.1-8.5-34.9-15.4c-11.4-7.2-22.5-14.8-36.1-20.9c53.2-7.3,104.9-14.3,157.5-21.5c-4.3,7.4-7.4,13.9-8.6,21.3
		c-1.5,9.4,2.3,17.1,10.8,21.5c8.6,4.4,17.8,5.5,27.2,4.3c12.7-1.7,25.1-5,37.3-8.9c11-3.6,21.7-8,32.6-12.5
		c-2.1,13.8,6,22.3,17.9,18.6c9.3-2.9,18.6-6.3,27-11.6c17.3-11,34-22.8,51-34.2c1.7-1.1,3.1-2.8,5.9-3c-2.9,7.3-6.5,13.9-8.5,21.1
		c-4.4,15.9,3.6,27.6,19.9,29.1c6.7,0.6,13.3-0.2,19.8-1.8c30.3-7.5,58.4-20.3,85.1-36.2c30.9-18.3,57-42.6,82.3-67.8
		c9.6-9.6,7.9-10.3,19.4,0.3c2.9,2.6,3.3,5.5,1.5,8.9c-3.2,6.1-7,11.6-11.8,16.6c-29,30.3-58.3,60.4-86,91.9
		c-7.9,9-14.5,18.6-17.4,30.4c-3.2,13.2,3.2,23.8,15.4,25.3c4.3,0.5,8.6,0.4,12.9-0.5c14.3-2.9,27.6-8.5,40.7-14.8
		c42.3-20.6,81.8-45.8,120.7-72.1c1.3-0.9,2.5-2.5,4.7-2.2c-0.9,1.2-1.5,2.1-2.3,3C970,446.4,931.9,499.3,897,554.5
		c-2,3.2-3.9,6.6-5.3,10.2c-1.2,3-0.9,5.6,1.5,7.7c2.5,2.3,5.4,2.3,8.3,0.6c5.5-3.2,8.7-8.1,10.6-14c0.8-2.5,1.6-5,3.1-7.3
		c37.6-54.3,74.4-109.1,115-161.4c29.5-38,60.1-75.1,91.2-111.8c1.8-2.2,3.8-4.2,7-4.2c24.2-0.5,48.5-1.1,72.7-1.6
		c0.4,1.8-0.9,2.4-1.5,3.2c-12.3,15.1-24.8,30-37.1,45.1c-21.7,26.5-43.9,52.7-62.7,81.5c-7.3,11.1-14.7,22.2-18.8,35
		c-1.8,5.6-1,9.9,2.8,12.6c4.6,3.2,8,0,11-2.7c7-6.4,13.7-13.1,20.6-19.7c20-19.3,39.5-39.2,61.7-56.1c8.4-6.4,17.1-12.3,27.2-16.2
		c0.3,2.9-0.8,5-1.5,7.2c-2.8,8.5-6.1,16.9-8.5,25.5c-4.5,16.1,4.5,28,21.3,28c9.2,0.1,18.2-1.6,27.1-4.1c24.8-7,47.8-18,70.6-29.8
		c1.3-0.7,2.5-2.1,4.5-1.5c-1.2,2.4-2.4,4.6-3.4,6.9c-4.9,11.3-10.1,22.5-9.1,35.4c0.7,7.9,4,14.1,12,16.7
		c5.8,1.9,11.6,2.3,17.7,1.1c22-4.5,41.7-14.5,61.3-24.6c18.6-9.6,36.4-20.5,55-32.2c-1.1,3-2,5.1-2.6,7.3
		c-4.5,14.6,4.6,26.4,19.9,25.5c3-0.2,6-0.5,8.9-1.1c19.1-4.3,37-12,54.7-20.1c9.1-4.2,18-8.7,27.8-13.4
		c-4.1,6.5-7.9,12.2-11.1,18.1c-3.2,5.9,0.1,12.5,6,12.9c3,0.2,5.4-1.4,7.8-3c23.4-15.9,46.6-32.1,70.4-47.4c9-5.8,19-9.5,29-13.2
		c3-1.1,4.1,0,3.4,3c-0.2,1-0.4,2-0.6,2.9c-2.3,10.7-5.1,21.4-6.8,32.2c-1.9,11.9,4.6,18.7,16.6,18.9c6.7,0.1,13.2-1.1,19.8-2.6
		c10.3-2.4,20-6.5,30.2-10.3c-0.2,1.2-0.3,1.9-0.3,2.5c-1.5,12.1,6.3,19.1,18.2,16.2c6.2-1.5,12.1-3.6,17.6-6.7
		c12.3-6.9,24.8-13.6,37.2-20.4c2.6-1.4,5.3-2.8,7.9-4.2c0,1.4-0.5,2.1-1,2.7c-17.1,22.2-35.1,43.6-53.5,64.6
		c-10.8,12.3-20.5,25.7-33,36.1c-42.1,34.9-87.9,63.5-141.1,78.6c-18.4,5.2-37,8.4-56.2,7.6c-16.1-0.6-20.8-8.1-14.4-22.9
		c1.2-2.9,2.8-5.6,4.6-8.3c3.9-6,8.5-11.5,13.6-16.6c17.5-17.5,38-30.6,59.6-42.4c5.6-3,11.3-4.3,17.6-4.3
		c29.8-0.1,59.6-1.7,89.1-6.9c7.8-1.4,15.7-3.2,22.5-7.6c4.3-2.8,7.2-6.6,6.4-12.1c-0.8-5.6-4.3-9.3-9.6-11c-2.2-0.7-4.5-1-6.8-1.3
		c-13.8-1.5-27.2,1.2-40.7,3.6c-22.7,4.1-44.3,11.7-65.4,20.9c-4.1,1.8-8.3,3.2-13,3.2c-29.8,0-59.6,0.8-89.4,1.9
		c-71.6,2.6-143.1,5.6-214.4,13.2c-43.1,4.6-85.9,10.3-128.1,20.3c-12.6,3-25.1,6.6-37,11.6c-3.1,1.3-4.8,3.1-4.1,6.4
		c0.8,3.7,3.5,4.6,6.8,4c1.6-0.3,3.3-0.5,4.9-1.1c29.5-10.3,60.1-16,90.8-20.9c52.7-8.3,105.7-13.3,159-16.2
		c63.7-3.4,127.5-6.6,191.3-7.1c0.8,0,2.1-0.8,2.4,0.9c-12.5,8-25.1,15.8-36.4,25.3c-13.9,11.6-26.6,24.4-34.4,41
		c-9.6,20.4-0.5,35.7,22,38c18.7,1.9,36.9-1.3,54.9-5.7c44.8-11,84.4-33,121.7-59.3c4.7-3.3,9.4-5.2,15.2-5.3
		c6.8-0.2,12.8,1.9,18.6,4.9c7.5,4,14.7,8.5,22.1,12.6c22.5,12.4,45.1,12.3,67.7,0.3c4.2-2.2,8-4.9,10.4-9.1
		c2.3-4.1,0.2-7.7-4.5-7.7c-4.5,0-8.9-0.3-13.4-1.3c-11.5-2.4-21.3-8.2-30.7-15c-12-8.8-25.1-13.5-40.2-11.1c-1.1,1-2.5,1.5-3.5,0.3
		C1734.2,485.3,1735.4,484.7,1736.1,484.4z M1425.8,258.1c44.8-49.7,92.9-95.8,145.5-137.2c10-7.8,20.6-14.7,32-20.3
		c4.3-2.2,8.9-3.7,13.6-4.7c1.8-0.4,3.7-1.2,5.2,0.4c1.6,1.8,0.1,3.4-0.6,5c-4.4,10.4-11.3,19.2-18.4,27.7
		c-27.4,32.7-58.9,61-90.6,89.3c-46.5,41.4-95.2,80.1-146.5,115.5c-1.3,0.9-2.4,2.3-4.9,2.5C1381.7,309.1,1403.2,283.2,1425.8,258.1
		z M557.9,351c-3.4,4.9-8.4,6.2-15,6.5C547.6,352.9,552.5,351.6,557.9,351z M253.9,389.5c12.8-14.2,24.1-28.2,37.5-40.2
		c11-9.9,23-18.5,35.6-26.4c0.6-0.4,1.1-0.8,1.7-0.5c0.8,0.6,0.5,1.4,0.1,2.2c-7.4,15.4-13.8,31.4-23.8,45.4
		c-6.7,9.4-15.5,15.8-27.6,16.8C269.8,387.5,262.3,388.6,253.9,389.5z M365.2,408.2c13.6,9,26.4,19.2,42.7,26.7
		c-25.8,5.1-49,3-70.2-11.4c-13.9-9.4-27.4-19.4-43-26.8c6.3-0.8,12.7-1,18.8-2.5C333.4,389.4,349.5,397.9,365.2,408.2z
		 M696.1,357.5c-18.5,13.5-38.3,25.3-57.7,37.5c-2.9,1.8-6.3,2.8-9.8,3.3c-4.5-0.1-2.9-3-1.8-4.6c2.4-3.4,4.9-6.8,8.1-9.4
		c12.6-10.3,25.6-20.1,40.7-26.7c6-2.6,12.3-4,18.8-4.6c1.6-0.1,3.8-0.3,4.4,1.5C699.4,356.2,697.2,356.7,696.1,357.5z M914.5,278.8
		c-9.9-7.7-9.6-5.3-1.6-14.9c5.8-7,14-11.2,21.2-16.5c4.2-3,8.5-5.8,12.9-8.6c2.2-1.4,4.4-3,7.3-2.6c-0.3,2-1.5,3.2-2.5,4.5
		c-10.1,12.3-20.3,24.6-30.3,37.1C919.1,280.8,917.4,281,914.5,278.8z M1239.6,251.1c27.8-31.2,55.8-62.3,85.3-91.9
		c0.7-0.7,1.5-1.3,2.2-1.9c1.4-2,2.9-3.7,5-5c16.6-17.8,34.9-33.8,53.9-48.9c2.3-1.9,5.7-5.2,8.1-3.4c2,1.5-0.9,5.4-2,8
		c-6.8,15.4-16.9,28.6-27.3,41.6c-30.9,38.3-65.5,73.1-101.9,106.2c-2.9,2.6-6,3.9-9.9,3.8c-6.5-0.2-12.9-0.1-20.5-0.1
		C1235.1,256.2,1237.3,253.6,1239.6,251.1z M1193.6,304.5c7.7-9.2,15.6-18.2,23.2-27.4c2.6-3.1,5.4-4.5,9.4-4.3
		c4.8,0.3,9.6,0.1,14.4,0.1c-19.4,18.8-40.1,35.2-62.3,50C1183.4,316.7,1188.5,310.6,1193.6,304.5z M1737.2,399.8
		c3.3-18,67.3-54.2,90.3-49.9C1798,368.5,1770.2,388.1,1737.2,399.8z M1705.9,449.4c0.1,0.9,0.3,1.8,0.4,2.7
		c-26.4,9.8-54.3,9.2-81.8,11C1651,453.7,1677.9,447.9,1705.9,449.4z M1737.1,495.4c13.4-2.8,25.1,1,35.1,9.9
		c8.8,7.9,18.3,14.3,29.8,17.7c-14.4,5.7-28.6,5.7-42.6-0.6c-6.5-2.9-12.7-6.6-18.8-10.2c-8.4-4.9-17.2-8.6-27.1-8.5
		c-0.5-1.9,1.1-1.6,1.7-1.9C1722.2,499,1729.6,497,1737.1,495.4z"/>
	<path class="st0" d="M1501.4,323.9c3.1-5.3,6.1-11.6,12.3-15c2.8-1.6,5.5-0.8,8,1.7c2.8,2.7,1.8,5.1,0.3,7.4
		c-2.8,4.1-5.8,8.1-9,11.9c-1.8,2.2-4.4,2.8-7.1,1.4C1503.1,329.9,1501.5,327.8,1501.4,323.9z"/>
</g>
</svg>
