<?xml version="1.0" encoding="utf-8"?>
<!-- Generator: Adobe Illustrator 25.0.1, SVG Export Plug-In . SVG Version: 6.00 Build 0)  -->
<svg version="1.1" id="Layer_1" xmlns="http://www.w3.org/2000/svg" xmlns:xlink="http://www.w3.org/1999/xlink" x="0px" y="0px"
	 viewBox="0 0 2000 2000" style="enable-background:new 0 0 2000 2000;" xml:space="preserve">
<style type="text/css">
	.st0{display:none;}
	.st1{fill:#FFFFFF;}
	.st2{fill:#FF0000;}
	.st3{fill:none;stroke:#000000;stroke-width:40;stroke-miterlimit:10;}
	.st4{fill:#FFFFFF;stroke:#000000;stroke-width:40;stroke-miterlimit:10;}
	.st5{enable-background:new    ;}
</style>
<g id="Layer_2_1_" class="st0">
	
		<image style="display:inline;overflow:visible;opacity:0.35;enable-background:new    ;" width="1984" height="1870" xlink:href="D2F15422.png"  transform="matrix(1 0 0 1 8 0)">
	</image>
</g>
<g id="Layer_1_1_">
	<g id="XMLID_1_">
		<g>
			<path class="st1" d="M1436,508c250.7,0,454,203.3,454,454s-203.3,454-454,454c0-250.7-203.3-454-454-454
				C1232.7,962,1436,758.7,1436,508z"/>
			<path class="st2" d="M982,962l454-454C1436,758.7,1232.7,962,982,962z"/>
			<path class="st2" d="M1436,508L982,962c0-250.7-203.3-454-454-454c0-250.7,203.3-454,454-454S1436,257.3,1436,508z"/>
			<path class="st1" d="M982,962c250.7,0,454,203.3,454,454C1185.3,1416,982,1212.7,982,962z"/>
			<path class="st1" d="M1436,1416c0,250.7-203.3,454-454,454s-454-203.3-454-454c250.7,0,454-203.3,454-454
				C982,1212.7,1185.3,1416,1436,1416z"/>
			<path class="st2" d="M528,508c250.7,0,454,203.3,454,454C731.3,962,528,758.7,528,508z"/>
			<path class="st1" d="M982,962c0,250.7-203.3,454-454,454C528,1165.3,731.3,962,982,962z"/>
			<path class="st2" d="M528,508c0,250.7,203.3,454,454,454c-250.7,0-454,203.3-454,454c-250.7,0-454-203.3-454-454
				S277.3,508,528,508z"/>
		</g>
		<g>
			<path class="st3" d="M1436,508c0-250.7-203.3-454-454-454S528,257.3,528,508"/>
			<path class="st3" d="M528,1416c-250.7,0-454-203.3-454-454s203.3-454,454-454s454,203.3,454,454"/>
			<path class="st3" d="M1436,1416c0,250.7-203.3,454-454,454s-454-203.3-454-454s203.3-454,454-454"/>
			<path class="st3" d="M1436,508c250.7,0,454,203.3,454,454s-203.3,454-454,454s-454-203.3-454-454C1232.7,962,1436,758.7,1436,508
				z"/>
		</g>
	</g>
	<path class="st4" d="M426.4,249.9c0,0-10.7-61.1-86-57.5c-42.5,2-81.4,35.2-118.8,10.9c24.2,37.4-8.9,76.3-10.9,118.8
		c-3.6,75.2,57.5,86,57.5,86c-98.5,35-77.5,136.8-77.5,136.8s64.9-52.6,144.7-80.3C411,438.4,461.2,443,461.2,443
		s-4.5-50.2,21.7-125.8c27.7-79.8,80.3-144.7,80.3-144.7S461.3,151.4,426.4,249.9z"/>
	<path class="st4" d="M1537.3,249.9c0,0,10.7-61.1,86-57.5c42.5,2,81.4,35.2,118.8,10.9c-24.2,37.4,8.9,76.3,10.9,118.8
		c3.6,75.2-57.5,86-57.5,86c98.5,35,77.5,136.8,77.5,136.8s-64.9-52.6-144.7-80.3c-75.7-26.2-125.8-21.7-125.8-21.7
		s4.5-50.2-21.7-125.8c-27.7-79.8-80.3-144.7-80.3-144.7S1502.3,151.4,1537.3,249.9z"/>
	<path class="st4" d="M426.4,1674.8c0,0-10.7,61.1-86,57.5c-42.5-2-81.4-35.2-118.8-10.9c24.2-37.4-8.9-76.3-10.9-118.8
		c-3.6-75.2,57.5-86,57.5-86c-98.5-35-77.5-136.8-77.5-136.8s64.9,52.6,144.7,80.3c75.7,26.2,125.8,21.7,125.8,21.7
		s-4.5,50.2,21.7,125.8c27.7,79.8,80.3,144.7,80.3,144.7S461.3,1773.3,426.4,1674.8z"/>
	<path class="st4" d="M1537.3,1674.8c0,0,10.7,61.1,86,57.5c42.5-2,81.4-35.2,118.8-10.9c-24.2-37.4,8.9-76.3,10.9-118.8
		c3.6-75.2-57.5-86-57.5-86c98.5-35,77.5-136.8,77.5-136.8s-64.9,52.6-144.7,80.3c-75.7,26.2-125.8,21.7-125.8,21.7
		s4.5,50.2-21.7,125.8c-27.7,79.8-80.3,144.7-80.3,144.7S1502.3,1773.3,1537.3,1674.8z"/>
	<g class="st5">
		<path class="st1" d="M1014.1,441.8v197.7c0,15.4,1.1,25.6,3.4,30.7c2.2,5.1,5.5,8.9,9.9,11.4c4.4,2.5,12.4,3.8,24,3.8v9.7H931.9
			v-9.7c12,0,20-1.2,24.2-3.5c4.1-2.3,7.4-6.2,9.8-11.5c2.4-5.4,3.6-15.7,3.6-30.9v-94.8c0-26.7-0.8-44-2.4-51.8
			c-1.3-5.7-3.2-9.7-5.9-12c-2.7-2.2-6.4-3.4-11-3.4c-5,0-11.1,1.3-18.3,4l-3.8-9.7l74.1-30.1H1014.1z M991.8,313.1
			c7.5,0,13.9,2.6,19.2,7.9c5.3,5.3,7.9,11.7,7.9,19.2s-2.6,14-7.9,19.3c-5.3,5.4-11.7,8.1-19.2,8.1s-14-2.7-19.3-8.1
			s-8.1-11.8-8.1-19.3s2.6-13.9,7.9-19.2C977.6,315.8,984.1,313.1,991.8,313.1z"/>
	</g>
	<g class="st5">
		<path class="st1" d="M332.3,847.4h103.1v9.9c-9.5,0.7-15.7,2.4-18.7,5.1c-3,2.7-4.4,6.5-4.4,11.5c0,5.6,1.5,12.3,4.6,20.1
			l52.6,141.5l52.9-115.2l-14-36.3c-4.3-10.7-9.9-18.2-16.9-22.3c-3.9-2.5-11.3-4-22-4.6v-9.9h117.1v9.9c-12.9,0.5-22,2.9-27.4,7
			c-3.6,2.9-5.4,7.4-5.4,13.7c0,3.6,0.7,7.3,2.1,11l55.9,141.3l51.8-136.2c3.6-9.7,5.4-17.4,5.4-23.1c0-3.4-1.7-6.4-5.2-9.1
			c-3.5-2.7-10.3-4.2-20.5-4.6v-9.9h77.6v9.9c-15.6,2.3-27,12.9-34.4,31.7l-82.2,211.9h-11l-61.5-157.1l-71.7,157.1h-9.9l-79-206.8
			c-5.2-13.1-10.3-21.9-15.3-26.5c-5-4.6-12.9-8-23.6-10.3V847.4z"/>
	</g>
	<g class="st5">
		<path class="st2" d="M1547.4,1018l-3,75.5h-217v-9.7l163.3-217.5h-80.6c-17.4,0-28.7,1.1-34.1,3.4c-5.4,2.2-9.8,6.5-13.2,12.8
			c-4.8,9-7.6,20.1-8.3,33.3h-10.7l1.6-68.2h206.3v9.9l-164.9,218.1h89.7c18.8,0,31.6-1.6,38.3-4.7c6.7-3.1,12.1-8.6,16.2-16.5
			c2.9-5.7,5.3-17.8,7.3-36.3H1547.4z"/>
	</g>
	<g class="st5">
		<path class="st2" d="M928.9,1269.1v244.7l62.6-56.9c13.2-12.2,20.9-19.9,23.1-23.1c1.4-2.1,2.1-4.3,2.1-6.4c0-3.6-1.5-6.7-4.4-9.3
			c-3-2.6-7.8-4.1-14.6-4.4v-8.6h106.9v8.6c-14.7,0.4-26.9,2.6-36.7,6.7c-9.8,4.1-20.5,11.5-32.1,22l-63.1,58.3l63.1,79.8
			c17.5,22,29.4,36,35.4,41.9c8.6,8.4,16.1,13.9,22.6,16.4c4.5,1.8,12.3,2.7,23.4,2.7v9.7H997.7v-9.7c6.8-0.2,11.4-1.2,13.8-3.1
			c2.4-1.9,3.6-4.5,3.6-7.9c0-4.1-3.6-10.7-10.7-19.9l-75.5-96.4v81.6c0,15.9,1.1,26.4,3.4,31.4c2.2,5,5.4,8.6,9.5,10.7
			c4.1,2.1,13.1,3.3,26.9,3.5v9.7H843.5v-9.7c12.5,0,21.9-1.5,28.2-4.6c3.8-2,6.6-5,8.6-9.1c2.7-5.9,4-16.1,4-30.6v-224
			c0-28.5-0.6-45.9-1.9-52.2c-1.3-6.4-3.3-10.7-6.2-13.2c-2.9-2.4-6.6-3.6-11.3-3.6c-3.8,0-9.4,1.5-16.9,4.6l-4.6-9.4l73-30.1H928.9
			z"/>
	</g>
</g>
</svg>
