<?xml version="1.0" encoding="utf-8"?>
<!-- Generator: Adobe Illustrator 25.0.1, SVG Export Plug-In . SVG Version: 6.00 Build 0)  -->
<svg version="1.1" id="Layer_3" xmlns="http://www.w3.org/2000/svg" xmlns:xlink="http://www.w3.org/1999/xlink" x="0px" y="0px"
	 viewBox="0 0 850.4 850.4" style="enable-background:new 0 0 850.4 850.4;" xml:space="preserve">
<style type="text/css">
	.st0{fill:#FFFFFF;}
</style>
<g>
	<g>
		<g>
			<g>
				<g>
					<path class="st0" d="M96.8,558.1c2.8,2,3.9,2.2,4.6,2.2c0.2,0,0.2,0,0.4,0c0.4-0.2,0.7-0.4,0.7-0.7c0-0.7-0.2-1.3-2.4-3
						c-1.7-1.5-2.2-2.2-2.2-2.6c0-0.7,0.4-1.3,1.3-2.2c1.1-1.1,2.4-1.5,3.5-1.7c1.3-0.2,2.2,0.2,3.3,0.9c1.3,1.1,3.3,2.2,5.7,2.8
						c2.8,1.1,4.1,1.1,4.8,0.4c0.7-0.7-0.2-1.5-1.7-3c-1.3-1.1-3-2.4-5-3.9l-0.9-0.7c-2.2-1.5-3.5-2.6-4.4-3.3
						c0.7,0.2,1.3,0.4,2.4,0.7c1.3,0.4,3.5,0.4,6.5,0.2c3-0.2,5.9-0.4,8.3-0.9c3.3-0.7,4.4-1.1,4.1-2c0-0.4-0.4-0.9-1.1-1.5
						c-0.7-0.4-1.1-1.1-2-1.5c-1.3-0.9-2.6-1.3-3.9-1.5c-1.3-0.2-3.7,0-7.4,0.2c-2.2,0.2-4.4,0.2-6.5,0.2c-2.6,0-3.7-0.2-4.1-0.4
						c-0.9-0.2-1.7-0.4-2.8-0.7s-2-0.2-2.6,0c-0.9,0.2-2,0-3.5-0.4c-1.5-0.4-2.8-0.9-3.9-1.3c-0.7-0.2-1.1-0.2-1.5-0.2
						c-0.7,0-1.1,0.4-1.3,0.7c-0.4,0.9,0.4,2.2,3.3,4.1c2.4,1.7,4.6,3,6.8,3.7c0.9,0.2,1.5,0.7,2,0.7l-0.9,0.2h-0.2
						c-0.9,0.4-1.5,1.1-2.4,1.7c-2.4,2.2-3.3,4.1-3,5.9c0.2,1.7,2,3.7,5,6.1L96.8,558.1z"/>
					<path class="st0" d="M96.3,589.9c0.7,0.7,2.4,2,5.4,3.7h0.2c0,0,2.2,0.7,3.5,0.7l0,0c0.2,0,1.1,0,1.3-0.7
						c0.2-0.7-0.4-1.3-0.9-1.7c-0.9-0.7-1.5-1.1-2-1.5c-0.7-0.4-1.1-0.9-1.3-1.1c-0.2-0.4-0.7-1.5-1.1-4.4c-0.2-2-0.2-3.5,0-4.4
						c0.2-0.9,0.7-1.7,1.1-2.4l1.3-1.3l0.9,2.4c0.7,2,2.2,3.9,4.1,5.7c2,1.7,4.4,3,6.8,3.7c2,0.7,3.7,0.2,5-1.1c1.1-1.1,1.7-2.8,2-5
						c0,0,0.4-2.2,0-4.8c0-0.2,0-0.4,0-0.9c0-0.7,0-1.3-0.2-2c-0.2-1.5-0.9-2.6-1.5-3.5c-0.7-0.9-1.7-1.7-3.3-2.6
						c-2.2-1.3-4.6-2.4-7.2-3c-2.6-0.7-4.8-0.9-6.5-0.4c-1.5,0.4-3.5,1.7-5.9,4.6c-2.6,2.6-3.9,4.8-4.6,6.5c-0.2,0.9-0.2,2-0.2,3.5
						c0,1.5,0.2,3,0.7,4.6l0.2,0.9C94.8,587.5,95.5,589,96.3,589.9z M111.3,572.1c0.7-0.7,1.5-0.7,2-0.7c0.7,0,1.1,0.2,1.1,0.2
						c0.2,0.2,1.1,0.9,1.3,1.7c0,0,0.9,3.3-0.4,7.2c-0.2,0.4-1.1,1.5-1.3,1.7c-0.7,0.4-0.9,0.4-0.9,0.4c-0.2-0.2-0.7-1.3-2-5.4
						C109.8,573.4,111.3,572.1,111.3,572.1z"/>
					<path class="st0" d="M101.5,611.5l6.3-1.1c3.5-0.7,5.9-0.9,7.4-0.9c0.7,0,0.9,0,0.9,0c0.2,0,0.4,0,0.9,0c0.9,0,2.4-0.2,4.8-0.7
						c3-0.7,5.9-1.3,8.7-2c4.1-1.1,4.8-1.5,4.6-2.4c0-0.4-0.4-1.1-3.7-3c-0.7-0.4-1.3-0.9-1.7-0.9c-0.4-0.2-0.9-0.2-1.5-0.4
						c-0.7-0.2-1.3-0.2-2.2,0c-0.7,0.2-1.5,0.2-2.4,0.4c-0.9,0.2-2,0.4-3.7,1.1c-2,0.7-3.9,1.1-5.7,1.5c-1.3,0.2-2.2,0.4-2.6,0.4
						c-0.2,0-0.2,0-0.2,0c-1.3-0.4-3-0.4-5.7-0.2c-2.4,0.2-5.2,0.9-8.3,1.7c-1.3,0.4-2.2,0.9-2.6,1.3c-0.4,0.7-0.7,1.3-0.7,2.6
						c0,1.1,0.2,2,0.9,2.8c0.4,0.7,1.5,1.5,2.8,2.4c2.6,1.7,3.5,2,4.1,2l0,0l0,0c0.7,0,0.9-0.4,0.9-0.7c0.2-0.7,0.2-1.3-0.7-2.8
						L101.5,611.5z"/>
					<path class="st0" d="M125.7,650.2c0.2-0.9-0.7-1.7-1.7-2.4l-3-3l4.8-0.4c3.3-0.7,5.4-0.9,6.3-0.9c0.7,0,1.3-0.2,2-0.7
						c0.7-0.4,1.1-1.1,1.5-2c0.7-1.3,0.9-2.2,0.4-2.8c-0.2-0.4-0.7-0.9-3-2.2c-2-1.1-2.6-1.3-3-1.3h-0.2c-0.4,0-1.1,0.2-1.5,1.5
						c-0.2,0.7-0.2,0.7-0.4,0.7c-0.2,0-0.9,0-2.6-0.7c-1.5-0.7-3.3-1.1-5-1.3s-3.3-0.7-4.6-0.9c-1.1-0.2-2.2-0.7-2.8-1.1
						c-0.2,0-0.2-0.2-0.4-0.2c0.4-0.2,1.5-0.4,3.3-0.9c1.1-0.2,2.4-0.2,3.7-0.2h0.4c1.5,0,2.4,0.2,2.8,0.4c1.5,0.9,3.7,0.7,6.5-0.4
						c2.4-0.9,3-1.3,3.3-1.7c0.4-0.7,0.7-1.5,0.4-2.8c-0.2-0.9-0.7-1.7-1.5-2.6c-0.7-0.7-2-1.5-3.5-2.4c-0.4-0.2-1.7-1.3-2.8-1.3
						c-0.4,0-0.9,0.2-0.9,0.4c-0.2,0.4-0.4,0.9-0.2,1.7v0.2c0.4,0.9,0.7,1.3,0.7,1.5c-0.2,0-0.7,0.4-2.2,0.9c-0.9,0.2-2,0.4-3.3,0.4
						s-2.6,0-3.7-0.2c-2.2-0.4-4.4-0.4-6.1-0.2c-2,0.4-3.3,1.1-4.1,2.2c-0.9,1.1-1.3,2.4-0.9,3.9c0.4,1.3,2,2.8,5,4.6
						c3,2,5,2.6,6.3,2.4c0.4-0.2,0.9-0.2,1.1,0c0,0,0.2,0.2,0,0.4c0,0.4-0.4,0.9-0.9,1.1c-1.1,0.9-1.7,1.5-1.7,2.4
						c-0.2,0.9,0.2,2.2,0.7,4.1c0.4,1.3,1.3,2,2.2,2.6c0.4,0.2,0.9,0.7,1.1,0.9l0.2,0.2h0.2c0.2,0,3.3,0.9,5.4,0.9
						C124.2,651.1,125.5,651.1,125.7,650.2z"/>
					<path class="st0" d="M135.3,694.4c0,0,0.2,0,0.4,0c1.3,0,2-0.2,2.2-0.9c0.2-0.9-0.4-1.7-2.4-2.8c-1.3-0.9-1.7-1.3-1.7-1.5
						c-0.2-0.4-0.2-0.7-0.4-0.9c-0.7-0.9-0.9-1.5,0-2.2c1.7-1.3,4.4-2.8,7.8-4.1l2.4-0.9c0.4-0.2,1.1-0.4,1.5-0.9
						c0.9-0.4,1.1-0.7,1.1-0.9c0.2-0.2,0.4-0.4,0.7-1.1c0.2-0.4,0.2-0.9,0.4-1.3c0-0.2,0-0.9,0-1.5c0-1.1,0-2.4-0.4-3.9
						c-0.2-1.7-0.7-3-1.1-4.6c-0.7-1.7-1.1-2.8-1.5-3.5c-0.4-0.7-1.1-1.3-2-1.7c-0.9-0.4-2.2-1.1-4.1-1.7c-2.4-0.9-4.1-1.3-5.7-1.5
						c-1.3,0-2.8,0.2-4.8,0.7c-2.8,1.1-4.6,2.2-5.4,3.7c-0.7,1.5-0.7,3.9,0.4,7.4c0.7,2.4,1.1,3.9,1.7,4.8s1.5,2,2.8,2.8l2,1.3
						l-1.5,1.1c-3.5,2.2-2.4,5-1.3,7.8l0.2,0.7c0.4,1.1,1.3,2,2.6,2.8C130.1,692.3,132,693.3,135.3,694.4L135.3,694.4z M130.3,666.8
						c0.2-0.4,1.1-1.3,3.9-2.4l0,0c0,0,0.7-0.4,1.5-0.4c2.4,0,3.7,3,3.7,8.3c0,0.9,0,1.7-0.2,2.2c-0.2,0.4-0.4,0.7-0.9,0.7l0,0h-0.2
						c-1.1,0-2.4,0.2-4.1,0.4c-0.4,0-0.9,0.2-1.1,0.2s-0.4,0-0.4,0c-0.2,0-0.2-0.2-0.2-0.2l0,0c0,0,0-0.2-0.2-0.7s-0.2-0.9-0.4-1.1
						c0-0.4-0.2-1.1-0.4-2C129.9,668.7,130.1,667.4,130.3,666.8z"/>
					<path class="st0" d="M147.5,707.9c1.1,0,2.8,0.7,5.4,1.7c4.1,1.7,4.6,2.4,4.6,2.4s-0.2,0.7-3.7,2.2c-0.9,0.4-2.8,1.3-2.4,2.6
						c0.2,0.9,1.5,1.5,3.7,2.2c0.7,0.2,1.5,0.2,2.2,0.2c1.1,0,2-0.2,3-0.4c2-0.7,3.5-1.5,4.6-2.6c1.5-1.7,1.3-3,0.9-3.9
						c-0.2-0.4-0.9-1.3-4.6-2.8c-2.6-1.1-5-2-7.6-3c-2-0.7-2.8-1.1-3.3-1.3c0,0,0.2,0,0.2-0.2c0.4-0.4,1.1-0.7,2-1.1
						c2.2-0.9,3-1.7,3-2.6s-1.1-1.5-3.5-2.4c-1.3-0.4-2.8-0.7-4.1-0.2c-1.3,0.2-3.7,1.3-7.6,2.8c-3.5,1.5-5.7,2.6-6.8,3.3
						c-0.4,0.2-2.2,1.3-1.5,2.6c0.7,1.3,2.2,2.2,4.6,2.6c0.7,0,1.3,0.2,1.7,0.2c1.7,0,3.3-0.2,4.8-0.9
						C145.1,708.2,146.4,707.9,147.5,707.9z"/>
					<path class="st0" d="M170.1,749.1c1.5-1.3,2.6-2.2,3.3-2.6c2.8-2.2,4.8-4.4,5.7-6.8c1.1-2.4,0.9-4.6,0-6.8
						c-0.7-1.3-1.5-2.4-2.6-3.3c-1.1-0.7-2.8-1.5-5.4-2.6c-3.7-1.5-6.5-2-8.3-2c-2,0.2-3.5,1.1-4.6,3c-0.9,1.7-1.1,3.5-0.2,5.4
						c0.9,1.7,2.4,3.7,4.8,5.4l2,1.5l-0.9,2.8c-1.3,1.5-3.3,3.3-6.1,5c-3.7,2.2-5,2-5.2,2c-0.4-0.2-1.3-1.1-3-4.8
						c-1.1-2.2-1.3-3.3-1.5-3.7l0.2-4.1c0.2-2.2,0-3.5-0.9-4.4c-0.4-0.4-1.1-0.7-1.7-0.7c-2,0-4.6,2.2-4.8,2.4l-1.1,1.7v0.2
						c-0.2,1.3-0.2,2.6,0,3.7s1.1,2.8,2.4,5.2c0.9,1.5,1.5,2.6,2,3.3c0.4,0.7,1.1,1.3,2,2c0.9,0.7,1.5,1.1,2.4,1.5
						c0.7,0.2,2,0.7,3.7,1.3c2.8,1.1,4.8,1.5,5.9,1.5h0.2c1.1,0,2.4-0.4,3.9-1.1c1.3-0.7,2.6-1.5,3.9-2.4
						C167.3,751.7,168.6,750.4,170.1,749.1z M166.2,733c0-0.7,0.4-1.1,0.7-1.5c0.4-0.4,0.9-0.7,1.3-0.7h0.2c0.4,0,0.7,0.2,1.1,0.4
						c0.7,0.4,1.1,0.9,1.3,1.5c0.7,1.1,0.7,1.7,0.7,2.2c0,0.4-0.4,1.1-1.1,1.7c-0.9,0.9-1.5,1.3-2.2,1.1c-0.7-0.2-1.3-1.1-1.7-2.6
						C166.2,734.5,166.2,733.6,166.2,733z"/>
					<path class="st0" d="M190.4,765.9c-0.7-1.5-2-3.9-2.8-5.4s-1.5-2.6-2.2-3.3c-0.7-0.7-1.3-1.1-2.2-1.5c-0.9-0.2-2.2-0.7-4.4-1.1
						c-0.4,0-0.9-0.2-1.3-0.2c-1.1,0-2,0.2-2.6,0.4c-0.4,0.2-0.7,0.2-1.1,0.2c-1.3,0.2-2.8,0.7-4.6,1.5c-2.6,1.5-4.4,3-4.6,4.6
						c-0.4,1.5,0,3.9,1.5,7.2c0.9,2.2,1.7,3.7,2.4,4.4c0.7,0.9,1.7,1.5,3.3,2.2l2.2,0.9l-1.5,1.3c-2.8,2.4-1.3,4.6,0,6.8
						c0.2,0.4,0.7,0.9,0.9,1.5v0.2h0.2c0.4,0.2,4.6,3,6.5,3l0,0c0.9,0,1.1-0.4,1.3-0.7c0.4-0.7,0.2-1.7-0.7-3.3
						c-0.4-0.9,0-2,1.3-3.3c0.7-0.7,0.9-1.3,1.1-1.7c0.4-0.9,0.9-1.7,2.8-3l2.2-1.3c0.4-0.2,0.9-0.7,1.5-1.1
						c0.7-0.7,0.9-0.9,1.1-1.1s0.2-0.7,0.4-1.1c0.2-0.4,0.2-0.9,0.2-1.3c0-0.2,0-0.9-0.2-1.5C191.5,768.7,191.1,767.4,190.4,765.9z
						 M183.2,770.2c-0.2,0.4-0.4,0.7-0.9,0.7c-0.4,0-0.9,0.2-1.3,0.4c-0.9,0.4-1.7,0.9-2.6,0.7c-1.7-0.4-3.7-2.8-4.1-3.3
						c-1.3-2.8-1.3-4.1-1.1-4.8v-0.4c0.2-1.1,0.7-2.8,2.4-3.7c0.2,0,0.7,0,1.1,0c1.1,0,2.6,0.2,3.3,1.7l0.4,0.7
						c0.7,0.9,1.3,2.4,1.7,3c0.4,0.9,0.7,2,0.9,2.8C183.4,768.9,183.4,769.6,183.2,770.2z"/>
				</g>
				<g>
					<path class="st0" d="M719.8,653.1c-2-3.5-3-4.1-3.7-4.1h-0.2c-0.2,0-0.7,0.2-0.7,0.4c-0.2,0.4-0.2,1.3,0.9,3.7
						c0.9,2,0.9,2.8,0.9,3.3c-0.2,0.4-0.9,1.1-2.2,1.3c-0.7,0.2-2,0.2-3.7,0.2c-1.7,0-3.3-0.2-3.7-0.4c-1.1-0.4-2-1.1-2.4-2.2
						c-0.7-1.5-2-3.3-3.7-5c-2.2-2.2-3-2.4-3.7-2.4c-0.2,0-0.4,0-0.4,0.2c-0.9,0.4-0.4,1.5,0.2,3.5c0.7,1.7,1.7,3.5,2.8,5.7l0.4,0.9
						c1.3,2.4,2.2,3.9,2.6,4.8c-0.4-0.4-1.1-0.9-1.7-1.5c-1.1-0.9-2.8-2-5.7-3c-2.6-1.1-9.4-3.5-11.8-4.1c-1.5-0.4-2.6-0.7-3.5-0.7
						c-0.9,0-1.1,0.4-1.3,0.7c-0.2,0.4,0,0.9,0.2,1.7c0.2,0.7,0.7,1.5,1.1,2.2c0.7,1.3,1.7,2.4,2.8,3c1.1,0.7,6.1,2.6,10.7,4.4
						c2.2,0.7,4.1,1.7,6.1,2.6c2.4,1.3,3.3,2,3.5,2.2c0.7,0.7,1.3,1.3,2.2,1.7c0.9,0.7,1.7,1.1,2.4,1.3c0.9,0.2,1.7,0.9,3,2
						s2.2,2.2,3,2.8c0.9,0.7,1.3,1.1,2,1.1c0.2,0,0.4,0,0.7-0.2c0.9-0.7,0.4-2.2-1.1-5.2c-1.3-2.6-2.8-4.6-4.6-6.3
						c-0.7-0.7-1.1-1.1-1.5-1.5l0.9,0.2h0.2c0.9,0,1.7-0.2,2.8-0.4c0.4-0.2,0.9-0.2,1.5-0.4c3.9-1.1,6.8-2,7.2-3.5
						c0.4-1.7-0.2-4.1-2-7.6L719.8,653.1z"/>
					<path class="st0" d="M723.9,606.9c-0.2,0-0.4,0.2-0.7,0.4c-0.2,0.2-0.4,0.7,0.4,3.3c0.2,0.7,0.7,1.3,1.1,2
						c0.2,0.4,0.7,0.9,0.7,1.1c-0.4,1.5-1.3,2.4-2.6,2.6c-2.2,0.2-5.2,0-8.7-0.9l-2.4-0.4c-0.4-0.2-1.1-0.2-1.7-0.2
						c-0.7,0-1.1,0-1.3,0c-0.2,0-0.7,0.2-1.1,0.4c-0.4,0.2-0.7,0.7-1.1,0.9c-0.2,0.2-0.4,0.7-0.9,1.3c-0.7,0.9-1.3,2-2,3.5
						c-0.7,1.5-1.1,3-1.5,4.4c-0.4,1.7-0.7,3-0.7,3.9c0,0.9,0.2,1.7,0.7,2.6c0.4,0.9,1.1,2,2.4,3.9c1.5,2.2,2.8,3.5,3.9,4.4
						s2.6,1.5,4.4,2c1.3,0.4,2.6,0.7,3.7,0.7c1.1,0,2.2-0.2,2.8-0.7c1.3-0.9,2.6-2.8,3.9-6.3c0.9-2.2,1.3-3.9,1.3-5
						s-0.2-2.4-0.9-3.9l-0.9-2.2h2h0.2c3.9,0,4.6-3.3,5.4-6.3l0.2-0.7c0.4-1.5,0.2-2.8-0.7-3.9C725.2,606.9,724.4,606.9,723.9,606.9
						z M718.5,625.6c0,0,0,0.2,0,0.7c0,0.4-0.2,0.9-0.2,1.1c-0.2,0.4-0.4,1.1-0.7,2c-1.1,3-2,4.1-2.6,4.4c-0.4,0.2-1.3,0-2.6-0.4
						c-0.4-0.2-1.1-0.2-1.7-0.4l-2-1.3c-0.7-0.7-0.4-1.7-0.2-2.2c0.2-0.9,0.4-1.7,0.9-2.6c0.4-0.9,0.9-2,1.3-2.6
						c0.4-0.9,0.9-1.3,1.5-1.7c0.4-0.2,0.7-0.2,1.1,0c0.9,0.7,2.2,1.3,3.9,2.2c0.4,0.2,0.9,0.4,1.1,0.4c0.2,0,0.2,0.2,0.4,0.4
						C718.3,625.6,718.5,625.6,718.5,625.6L718.5,625.6z"/>
					<path class="st0" d="M734.6,581.6c-2.8-3.5-3.9-4.1-4.4-4.4s-0.9,0-1.1,0.4c-0.2,0.4-0.2,1.1,1.3,3.5c0.4,0.7,0.9,1.5,0.9,2.4
						c0.2,0.9,0.2,1.7,0,2.6c-0.4,1.7-0.7,2-0.7,2s-0.2,0-0.4,0c-0.4,0-1.3,0-2.2-0.2c-3.5-0.7-4.6-1.3-5-1.7
						c-0.2-0.2-0.7-1.3-0.2-3.9c0.4-2,0.2-4.1-0.4-6.5c-0.9-2.4-1.7-3.7-3-3.9c0,0,0,0-0.2,0c-0.7,0-0.9,0.4-1.5,2
						c-0.4,1.1-0.9,2.4-1.3,3.9l-1.1,4.6l-1.5-1.3c-1.3-1.1-3-1.7-5.2-2.2c-2.4-0.4-3.9-0.2-4.4,0.9c-0.4,0.9,0,2.2,1.5,4.1
						c1.3,1.7,2.2,2.4,3,2.4c0.2,0,0.2,0,0.4,0c0,0,0.2,0,0.4,0c0.7,0,1.5,0.2,2.8,0.9c1.5,0.4,1.7,0.9,2,1.1c0,0.2,0.2,0.7,0,2.2
						c-0.4,2.2,0,4.1,1.3,5.9c1.7,2.4,2.4,2.6,3,2.6h0.2c0.7-0.2,1.1-0.9,1.7-3.7l0.4-2.8l3.3,1.7c3.5,1.7,6.1,2.6,8.1,2.6l0,0
						c0.4,0,0.9,0,1.3-0.2c2-0.4,3.5-2.6,4.1-6.3c0.2-1.5,0.2-2.8-0.2-3.9C737,585.1,736.1,583.6,734.6,581.6z"/>
					<path class="st0" d="M739.4,551.4c-1.3-1.7-2.4-3-3.3-3.5c-0.9-0.7-2.2-1.1-3.9-1.1c-5.9-0.7-9.6,0.9-10.7,4.6
						c-1.1,2.6-1.5,4.6-1.3,6.1c0,1.5,0.7,2.8,2,4.6c2.8,3.7,5.9,6.1,9.4,7.2c1.3,0.4,2.6,0.7,3.7,0.7c2,0,3.5-0.7,4.8-2
						c1.7-1.7,2.6-4.1,2.6-7.4C742.2,557,741.4,554,739.4,551.4z M735.9,557c0,1.7-0.4,3-1.3,3.7c-0.9,0.9-2.4,1.1-4.1,0.7
						c-3-0.4-3.7-1.1-3.7-1.3c-0.2-0.2-0.4-1.1,0.9-3.7c0.4-0.9,0.9-1.3,2-1.7c0.9-0.4,1.7-0.7,2.6-0.7c0.2,0,0.2,0,0.4,0
						c0.9,0,1.7,0.4,2.6,0.9C735.7,555.5,735.9,556.2,735.9,557z"/>
					<path class="st0" d="M750.1,535.7c-2-2.4-2.6-3-3.3-3.3c-0.4-0.2-0.9,0-1.1,0.2c-0.4,0.4-0.4,1.3-0.2,2.6l0.2,1.7l-6.3-1.3
						c-6.1-1.3-7.6-2-7.8-2.2c-0.4-0.2-1.3-0.7-5.4-1.5c-3-0.4-6.1-0.9-8.9-1.3c-1.5-0.2-2.6-0.2-3.5-0.2c-0.7,0-1.5,0-1.7,0.9
						c0,0.4,0,1.1,2.4,4.1c0.7,0.7,1.1,1.3,1.3,1.5c0.4,0.2,0.7,0.7,1.1,0.9c0.4,0.4,1.1,0.7,2,0.7c0.7,0.2,1.5,0.2,2.4,0.4
						c0.9,0,2.2,0.2,3.9,0.4c2.2,0.2,4.1,0.4,5.9,0.7c2.2,0.4,2.6,0.7,2.8,0.7c1.1,0.9,2.6,1.5,5.2,2.2c2.4,0.7,5.2,1.1,8.3,1.3
						c0.4,0,0.7,0,1.1,0c0.9,0,1.5-0.2,2-0.4c0.7-0.4,1.1-1.1,1.5-2.2c0.4-1.1,0.4-2,0.2-2.8C751.6,538.1,751.2,537,750.1,535.7z"/>
					<path class="st0" d="M744.2,509.8L744.2,509.8c-1.1,0-1.7,1.7-2,3.3l-0.4,2.4l-7.4-0.9c-5.2-0.7-8.7-1.3-10-1.7
						c-0.9-0.2-1.5-0.4-2-0.2c-0.7,0.2-0.9,0.7-0.9,0.9c-0.2,0.7,0,1.5,2.6,4.4c2.6,2.6,3.3,3,3.7,3c0.2,0,2,0.4,8.5,1.7
						c3.5,0.9,5.7,1.1,7,1.3h0.2c1.1,0,2.2-0.4,3-1.1c1.3-1.1,2.2-2.6,2.4-4.6c0.2-2-0.2-3.7-1.5-5.7
						C745.9,510.6,745.1,509.8,744.2,509.8z"/>
					<path class="st0" d="M712.2,520.2c0.2,0.2,1.1,1.5,2.2,1.5c0.9,0,1.7-0.7,2.4-2.4c0.4-1.5,0.7-2.6,0.4-3.5
						c-0.2-0.9-0.7-1.7-1.3-2.8c-1.3-1.5-1.7-2-2.2-2h-0.2c-0.4,0-1.1,0.4-2,1.5c-1.3,1.3-1.7,2.4-1.7,3.5
						C710,517.4,710.7,518.5,712.2,520.2z"/>
					<path class="st0" d="M745.1,493.4c2.6-1.5,4.1-3.3,4.1-5.2c0-1.7-1.1-4.1-3.7-7l-0.9-0.9c-2.6-2.8-3.7-3.3-4.4-3.3h-0.2
						c-0.4,0-0.7,0.2-0.7,0.4c-0.2,0.4,0,1.3,1.7,3.5c1.5,1.7,1.5,2.6,1.5,3c0,0.7-0.7,1.3-1.7,2c-1.3,0.9-2.6,1.1-3.9,0.9
						s-2.2-0.7-3-1.5c-1.1-1.3-2.6-2.6-4.8-3.9c-2.4-1.5-3.3-1.5-3.7-1.5c-0.4,0-0.7,0-0.9,0.2c-0.7,0.7-0.2,1.5,1.1,3.3
						c1.1,1.5,2.4,3,4.1,4.8l0.7,0.9c1.7,2,3,3.3,3.7,4.1c-0.4-0.2-1.3-0.7-2.2-1.1c-1.1-0.7-3.3-1.1-6.3-1.5
						c-3-0.4-5.7-0.9-8.3-0.9c-0.4,0-0.9,0-1.1,0c-2,0-3.3,0.2-3.3,1.1c0,0.4,0.2,0.9,0.7,1.7c0.4,0.7,0.9,1.3,1.5,2
						c1.1,1.1,2.2,1.7,3.5,2.2c0.2,0,0.7,0.2,1.1,0.2c0.4,0,1.1,0,1.7-0.2c1.3-0.2,3.3-0.2,4.8,0c2.2,0.2,4.4,0.7,6.5,1.1
						c2.6,0.7,3.5,1.1,3.9,1.3c0.7,0.4,1.5,0.9,2.6,1.3c1.1,0.4,2,0.7,2.6,0.7c0.9,0,2,0.4,3.3,1.3c1.5,0.9,2.6,1.5,3.7,2
						c0.7,0.4,1.3,0.7,1.7,0.7c0.4,0,0.9-0.2,0.9-0.4c0.7-0.9,0-2.2-2.4-4.8c-1.3-1.5-2.8-2.2-4.4-2.8c-0.7-0.2-1.3-0.7-2-0.9
						c-0.7-0.4-1.1-0.7-1.5-0.9c0.2,0,0.4-0.2,0.9-0.2C743.3,494.3,744.2,493.9,745.1,493.4z"/>
				</g>
				<g>
					<path class="st0" d="M489.8,768.9L489.8,768.9c1.1,0.2,2,0.4,2.6,0.4c0.4,0,0.9,0,1.3-0.2c0.9-0.2,1.7-0.7,2.6-1.7
						c1.5-1.5,1.7-2,1.7-2.4c0-0.7-0.4-1.1-1.7-2c-1.5-1.1-2.8-1.7-3.9-1.5c-0.9,0.2-2.2,1.1-3.9,2.8c0,0-1.1,0.9-0.9,2.2
						C487.9,767.4,488.5,768.3,489.8,768.9z"/>
					<g>
						<path class="st0" d="M311,809.2l-2.6,0.4c-0.4,0-0.9,0.2-1.3,0.2s-0.4,0-0.4,0s-0.2-0.4-0.2-2.2c0-0.9,0.2-2,0.7-3.3
							c0.4-1.3,0.9-2.4,1.3-3.5c0.9-1.7,1.3-3,1.3-4.1s-0.2-2.4-0.9-4.1c-0.7-2.2-1.5-3.9-2.6-5.2c-1.1-1.7-2-2.4-2.8-2
							c-0.4,0.2-1.3,0.7-2.2,1.1c-0.9,0.7-1.7,1.1-2.6,1.5c-0.7,0.4-1.5,0.9-2.6,1.1c-0.9,0.2-1.5,0.2-2,0l0,0
							c-1.5-0.7-3-0.7-4.6-0.2c-1.5,0.4-3,1.3-4.8,2.8c-1.5,1.3-2.2,1.7-2.4,1.7c0,0-0.2-0.4-0.4-0.9c-0.7-1.1-1.5-1.7-2.8-2
							c-1.1,0-2.4,0.2-3.9,1.1c-1.3,0.9-2.4,2-3.3,3.3l-2.2,3.5c-0.2,0.2-0.2,0.4,0,0.7c0.2,0.2,0.4,0.2,0.7,0.2l2.6-0.4
							c0.9-0.2,1.5,0,1.7,0.2c1.1,0.9,0.7,3-1.3,6.8c-1.1,2.2-1.7,5.2-2,8.9c-0.2,4.1,0.4,6.1,1.7,6.5c0.2,0,0.4,0,0.7,0
							c1.1,0,2.2-1.1,3.3-3.3c1.3-2.4,2-4.6,2-6.5c0-3.9,1.1-7.6,2.8-10.5c1.7-2.8,3.5-4.4,5.7-4.6c0.7,0,1.5,0.2,1.7,2.2
							c0,1.7-0.4,4.4-1.7,7.6c-0.9,2.2-1.3,4.4-1.5,6.3c-0.2,2,0,3,0.4,3.5c0.4,0.4,0.9,0.4,1.3,0.4c1.1-0.2,2.2-1.5,3.7-4.6
							c1.3-2.8,2.4-5.9,3.5-9.1c1.5-5.7,2.8-7.6,3.9-8.3c0.9-0.7,1.3-0.7,1.3-0.7s0.4,0.4,1.7,3c0.9,1.7,1.3,2.8,1.3,3.7
							c0,0.7,0,1.5-0.7,2.4l-2.2,4.6c-0.4,0.7-0.7,1.5-0.7,2.8c-0.2,1.1-0.2,2.2-0.2,3.3c0.2,2.4,0.7,3,0.9,3.3
							c0.4,0.4,1.5,0.7,3,0.4c1.3,0,2.4-0.4,3.3-1.1c0.9-0.7,1.7-1.5,2.6-3l2.4-3.5c0.2-0.2,0.2-0.4,0-0.7
							C311.5,809.4,311.3,809.2,311,809.2z"/>
						<path class="st0" d="M352.9,796.1c-0.2,0-0.9,0-2.8,2.8c-0.2,0-0.2,0-0.4,0l0,0c-0.2-0.2-0.4-0.9-0.7-1.3c-1.1-2-2-5-2.6-8.9
							l-0.4-2.6c0-0.7-0.2-1.1-0.4-1.7c-0.2-0.9-0.4-1.1-0.7-1.3c-0.2-0.2-0.4-0.4-0.9-0.9c-0.4-0.2-0.9-0.4-1.3-0.7
							c-0.2,0-0.9-0.2-1.5-0.4c-1.1-0.2-2.4-0.4-4.1-0.4c-1.7,0-3.3,0-4.8,0.2c-2,0.2-3.3,0.7-3.9,0.9c-0.9,0.4-1.5,0.9-2.2,1.5
							c-0.7,0.7-1.5,2-2.8,3.9c-1.5,2.2-2.4,3.9-2.6,5.4c-0.4,1.3-0.4,3-0.2,5c0.4,3.3,1.3,5.2,2.6,6.3s3.9,1.5,7.6,1.3
							c2.4,0,4.1-0.2,5.2-0.7c1.1-0.4,2.2-1.1,3.5-2.2l1.7-1.7l0.7,2c1.1,2.8,2.4,3.9,4.6,3.9c0.7,0,1.5,0,2.4-0.2
							c0.7,0,2.6-0.4,3.3-2.4c2-6.1,2-7.2,1.5-7.6C353.3,796.1,353.1,796.1,352.9,796.1z M338.9,790.7c-0.7,3.7-4.6,6.3-5.2,7
							c-0.2,0-0.4,0-0.7,0c-2.8,0-3.9-0.4-4.4-0.9c-0.4-0.4-1.1-1.5-1.5-4.6c0,0,0,0,0-0.2c0,0-0.4-0.9,0.2-1.7
							c0.4-0.9,1.5-1.3,3.3-1.7c0.9-0.2,1.7-0.2,2.8-0.2l0,0c1.1,0,2.2,0,3,0.2c0.9,0.2,1.7,0.4,2.2,0.9
							C338.9,789.8,338.9,790,338.9,790.7z"/>
						<path class="st0" d="M399.5,788.1c-0.7,0-1.5,0.4-4.1,3.5l-1.5,1.7l-0.7-6.5c-0.7-6.5-2-10.7-4.1-12.2
							c-0.7-0.4-1.5-0.9-2.4-0.9c-1.7,0-3.9,1.1-6.3,3.5l-2.2,2.2l-0.7-8.1c-0.2-2.6-0.4-4.8-0.7-6.5c-0.4-2.4-0.7-3.3-1.5-3.3l0,0
							c-0.4,0-1.3,0.4-3.3,2.8c-0.9,1.1-1.3,2.6-1.5,4.4c-0.2,1.7-0.4,4.6-0.2,8.9c0,2.8,0,5.9-0.2,8.9c-0.2,3-0.4,5.4-0.7,7
							c-0.4,2.6-0.9,5-1.1,7c-0.2,2-0.2,3.5-0.2,4.6c0,0.7,0.2,2,1.3,2.2l0,0l0,0c1.3-0.2,2.6-1.5,4.4-4.1c1.5-2.6,2.4-5,2.6-7.2
							l0.9-6.8c0-0.7,0.4-1.5,0.9-2.6c0.4-1.1,1.1-2,1.7-2.8c1.1-1.3,1.7-2,2-2c0.2-0.2,0.4-0.2,0.7-0.2c0,0,0.4,0.2,1.5,0.9
							c0.9,0.7,1.5,1.5,1.7,2.4c0.2,1.1,0.7,3.5,0.9,7.2v0.9c0.4,5.4,0.9,6.8,1.1,7.2c0.4,0.7,1.3,0.9,2.6,0.9l0,0
							c1.1,0,2.2-0.4,3-1.1c0.9-0.7,2.2-2,3.5-3.9c0.4-0.4,0.7-1.1,1.1-1.5c2.8-4.1,2.8-5.2,2.4-5.9
							C400.1,788.3,399.7,788.1,399.5,788.1z"/>
						<path class="st0" d="M438.4,792.4c-0.9,0-2,0.2-2,0.2l0,0c-1.1,0-2-1.5-2.4-2.8c-0.9-2.2-1.5-5.2-2-8.9l-0.2-2.6
							c0-0.7-0.2-1.1-0.4-1.7c-0.2-0.9-0.4-1.3-0.4-1.3c-0.2-0.2-0.4-0.4-0.9-0.9c-0.4-0.4-0.9-0.7-1.1-0.7
							c-0.2-0.2-0.9-0.2-1.5-0.4c-1.1-0.4-2.4-0.7-4.1-0.9c-1.7-0.2-3.3-0.2-4.8-0.2c-2,0.2-3.3,0.2-4.1,0.7
							c-0.9,0.2-1.7,0.7-2.4,1.5c-0.7,0.7-1.7,1.7-3,3.7c-0.4,0.7-0.9,1.1-1.1,1.3c-0.7,0.7-0.9,0.9-1.1,2c-0.4,1.1-0.7,2.8-0.7,5.2
							c0.2,3.3,0.9,5.2,2.2,6.5c1.3,1.1,3.7,1.7,7.4,2c0,0,1.1,0.2,2.6,0.2c2,0,3.7-0.2,5-0.4c0,0,0.2,0,0.2-0.2l2-1.7l0.7,2
							c1.1,3.9,3.5,6.1,7,6.1c0.2,0,0.4,0,0.7,0c1.5,0,2.8-0.7,3.7-1.7c2.2-2.6,3-4.1,2.6-5C440,792.9,439.5,792.4,438.4,792.4z
							 M424.7,782c-0.4,1.1-0.7,2.6-0.9,4.6c0,0.7-0.2,0.9-0.2,1.3v0.2c-0.9,0-2.4-0.2-4.8-0.2c-0.4,0-0.9,0-1.3,0
							c-2.6,0-3-0.4-3.9-1.1c-0.4-0.4,0.2-2,0.9-3.7c0.9-1.1,3.5-2.6,4.8-3.3c1.1,0,2,0.2,2.8,0.4c0.9,0.2,1.7,0.4,2.2,0.9
							C424.7,781.1,424.7,781.5,424.7,782z"/>
						<path class="st0" d="M478.5,778.7c-0.4-0.4-1.3-1.3-2.4-2.2c-2.6-2.2-5-3-7.2-3c-2.2,0.2-4.8,1.5-7.4,4.1
							c-1.5,1.5-2.6,2.8-3.3,3.9c-0.7,1.1-1.1,2.4-1.1,3.7c0,1.5,0.2,2.8,0.7,3.5c0.4,0.7,1.7,1.5,3.7,2.6c3.7,2.2,4.6,3.3,4.6,3.7
							c0,0,0,0,0,0.2c0,0-0.2,0.2-1.5,0.2c-0.7,0-1.5-0.2-2.4-0.7c-0.9-0.4-1.7-1.1-2.6-1.7l-0.2-0.2l-3.5-0.9c0,0-1.1-0.2-2.2-0.2
							c-2.6,0-4.1,0.4-4.6,1.5c-0.4,0.9,0.2,2,1.5,3.5l3.3,2.8c2,1.5,3.7,2.6,5.2,2.8c0.2,0,0.7,0,0.9,0c1.5,0,3.3-0.4,5.4-1.1
							c2-0.7,3.9-2,6.1-3.7c2.2-2,3-3.3,3-4.6s-0.7-2.8-2.2-4.6c-1.3-1.5-3-3-4.8-3.9c0,0-0.2,0-0.2-0.2c-1.7-1.1-2.8-2.2-2.8-3
							c0-0.2,0-0.2,0-0.4c0,0,0.2-0.2,0.9-0.2l1.1,0.2c0.4,0.2,0.7,0.2,0.9,0.4c0.2,0,0.4,0.2,0.9,0.4c0.4,0.7,2,3.9,4.8,3.9
							c1.1,0,2.4-0.7,3.5-1.7c0.9-0.7,1.5-1.3,2-1.7c0.4-0.7,0.7-1.3,0.7-2C479.4,780,479.2,779.4,478.5,778.7z"/>
						<path class="st0" d="M500.1,791.3l-2.6-0.2l0.2-7.8c0.2-5.7,0.4-9.1,0.9-10.7c0.2-0.9,0.2-1.5,0-2c-0.2-0.4-0.7-0.9-1.1-0.9
							c-0.7,0-1.5,0.4-3.9,3.3c-2.6,3-2.8,3.7-2.8,4.1s-0.4,3.5-1.1,8.9c-0.4,3.7-0.7,6.1-0.7,7.2c0,1.3,0.4,2.4,1.3,3.3
							c1.1,1.3,2.8,2,4.8,2h0.2c2,0,3.9-0.7,5.7-2c2-1.5,2.8-2.6,2.6-3.5C503.3,791.8,501.6,791.6,500.1,791.3z"/>
						<path class="st0" d="M536.2,778.5c-2.4-2.2-4.6-3.5-7-3.5H529c-0.4,0-1.3-0.2-2-0.2c-0.9-0.2-2-0.2-2.8-0.2
							c-1.5,0-2.8,0.4-3.9,1.3c-1.1,1.1-2,2.8-2.4,4.1c-0.2,0.7-0.4,1.3-0.7,1.5c-0.7,1.1-1.1,2.4-1.3,3.7c-0.2,1.5,0,2.8,0.4,3.5
							c0.4,0.7,1.5,1.7,3.5,2.8c3.7,2.4,4.4,3.5,4.4,3.9c0,0,0,0,0,0.2c0,0-0.2,0.2-1.3,0.2h-0.2c-0.7,0-1.5-0.2-2.4-0.9
							c-0.9-0.4-1.7-1.1-2.4-2l-4.6-4.8c0,0-0.2,0-0.2-0.2c0,0-1.7-0.9-3.3-0.9c-1.3,0-2.2,0.4-2.8,1.1c-0.9,1.1-1.1,3-0.4,5.7
							c0,0.2,0,0.2,0.2,0.2l3.3,3c1.3,1.3,5.2,4.8,7,5c0.4,0,0.9,0.2,1.5,0.2c1.3,0,3-0.2,5-0.9c2-0.7,4.1-1.7,6.3-3.3
							c2.2-1.7,3.3-3.3,3.3-4.4c0-1.3-0.7-2.8-2-4.6c-1.3-1.5-1.7-2.4-3.5-3.5l-0.2-0.2c-1.7-1.1-2.6-2.4-2.8-3.3c0-0.2,0-0.2,0-0.4
							c0,0,0.2-0.2,0.9-0.2h0.2c0.2,0,0.7,0.2,1.7,0.9c0.9,0.7,1.7,1.3,2.6,2.2c1.1,1.1,2.6,1.5,4.1,1.5c1.3,0,2.2-0.4,2.2-0.4
							s0,0,0.2,0c0.9-0.7,1.5-1.3,2-1.7c0.4-0.4,0.7-1.1,0.7-2c0-0.7-0.4-1.3-0.9-2C538,780.2,537.1,779.4,536.2,778.5z"/>
						<path class="st0" d="M580.2,770L580.2,770c-0.7,0-1.1,0.2-1.7,0.7c-0.7,0.4-1.3,0.9-2,1.5c-1.1,1.1-2.2,2.6-2.6,4.8
							c-0.7,2.2-0.7,3.7,0,4.8c0,0,0,0.2-0.2,1.1c-0.2,0.7-0.4,1.3-0.9,1.7c-0.2,0.2-0.2,0.4-0.4,0.7c0-0.4-0.2-1.1-0.2-2.2
							c0-1.1-0.2-2.2-0.4-3.3c-0.4-1.5-0.7-2-0.9-2.2c-0.9-0.7-2.2-0.2-3.9,1.3c-1.5,1.3-3,3-4.4,5c-1.3,2.2-2.4,3.5-3.5,4.4
							c-0.2,0.2-0.2,0.2-0.4,0.2c-0.2-0.2-0.4-1.1-0.4-3c-0.2-3-1.3-6.1-3.7-9.1l-3.3-4.6c0-0.2-0.2-0.2-0.4-0.2
							c0,0-2.2-0.7-4.1-0.7c-2,0-3,0.4-3.7,1.5s-0.2,2.8,1.1,5l3,4.1c1.3,1.7,2,3.3,2.4,4.4c0.4,1.3,0.7,3.5,0.7,6.5
							c0,6.5,0.4,7.8,0.7,8.5c0.2,0.4,0.4,0.4,0.9,0.4c0.4,0,0.9-0.2,2.2-1.1s2.6-2,3.7-3.3c1.3-1.3,2-2.4,2-3c0,0,0-0.4,0.9-1.5
							c0.4-0.9,1.1-1.5,1.7-2.2l1.7-1.7l0.2,3.3c0.2,3.3,0.4,5.7,1.1,7.2c0.4,1.5,0.9,2.2,1.5,2.4h0.2c0.4,0,0.9-0.2,2.4-1.3
							c1.1-0.9,2.8-2.6,5-5.2c3-3.5,3.5-4.6,3.7-5c0.2-0.4,0.4-1.1,0.7-2c0.9-2,1.5-4.4,2.2-7.2c0.7-2.8,0.9-5.2,1.1-7.4
							C581.5,772,581.5,770,580.2,770z"/>
						<path class="st0" d="M618.1,795.7c-1.1,0-2.6,0.4-2.6,0.4l0,0c-1.3,0.7-2,0.9-2.2,0.9c-1.1-0.2-1.7-1.7-2-3.3
							c-0.2-1.1,0-1.7,0.4-2.6c0.4-0.9,0.7-2,0.9-3.9c0-0.7,0.2-1.3,0.4-1.7c0-0.4,0.2-0.7,0.2-0.9c0-0.2,0-0.2,0.2-0.4
							c0-0.2,0.2-0.7,0.2-1.1c0-0.4,0-0.7-0.2-0.9c0-0.2-0.2-0.7-0.7-1.1c-0.4-0.4-0.7-0.7-0.9-0.9c-0.2-0.2-0.7-0.4-1.3-0.9
							c-0.9-0.4-2.2-1.1-3.9-1.5c-1.7-0.4-3.3-0.9-4.8-1.1c-2-0.2-3.3-0.4-4.1-0.2c-0.9,0-1.7,0.4-2.6,0.9s-2,1.5-3.7,3
							c-2,1.7-3.3,3.3-4.1,4.4c-0.7,1.1-1.3,2.8-1.7,4.8c-0.4,3.3-0.2,5.4,0.9,6.8s3.3,2.4,7,3.3c2.4,0.7,3.9,0.9,5,0.9h0.2
							c1.1,0,2.4-0.4,3.9-1.1l2.2-1.1v0.7c0.2,4.1,1.1,5.2,4.4,5.2h0.4c1.1,0,2.4,0,3.7-0.9c6.5-4.6,6.8-5.7,6.5-6.3
							C619.2,796.1,619,795.7,618.1,795.7z M605.5,787.6c-0.7,0.9-1.1,2.4-1.7,4.1c-0.2,0.4-0.4,0.9-0.4,1.1s-0.2,0.2-0.4,0.4
							c-0.2,0.2-0.2,0.2-0.2,0.2c-0.2,0-0.4,0-0.7,0c-0.4,0-0.9-0.2-1.3-0.2c-0.4,0-1.1-0.2-2-0.4c-3.3-0.9-4.4-1.7-4.8-2.2
							c-0.4-0.4-0.7-1.7-0.2-4.6c1.3-2.2,3.9-2.6,4.1-2.6c0.9,0.2,1.7,0.4,2.8,0.7c1.1,0.2,2,0.7,3,1.1c0.9,0.4,1.5,0.9,2,1.3
							C605.7,786.8,605.7,787.2,605.5,787.6z"/>
					</g>
				</g>
				<g>
					<path class="st0" d="M688.4,196.8c0.2,0.2,1.1,1.1,2,1.1l0,0c1.1,0,2-1.1,2.2-3l0,0c0-1.5-0.2-2.6-0.7-3.5
						c-0.4-0.9-1.1-1.5-2.2-2.2c-1.7-1.1-2.2-1.3-2.6-1.3c-0.7,0-1.1,0.7-1.7,2c-0.9,1.7-1.1,2.8-0.7,3.9
						C685.6,194.4,686.7,195.5,688.4,196.8z"/>
					<g>
						<path class="st0" d="M706.7,439.2c0.7,0.9,1.7,1.3,3.3,1.3c0.9,0,2-0.2,3-0.4c0.2,0,0.4-0.2,0.4-0.4c0.2-1.5,0.4-2.6,0.2-3.5
							c-0.2-0.9-0.7-1.7-1.5-2.6c-1.3-1.5-2-1.7-2.4-1.7s-1.1,0.4-2,1.5c-1.1,1.3-1.5,2.6-1.5,3.5
							C706.3,437.3,706.1,438.1,706.7,439.2z"/>
						<path class="st0" d="M722.6,438.1c2,1.7,8.5,3,9.1,3c0.4,0,1.7,0,7,0.7c3.3,0.4,5.4,0.7,6.8,0.7h0.2c1.3,0,2.4-0.4,3.3-1.3
							c1.3-1.1,2-2.6,2-4.6c0-2-0.2-4.1-2-5.4c-1.1-0.9-2-1.1-2.8-1.1c-1.5,0-2.2,1.3-2.2,2.2l-0.2,2.6l-8.1-0.4
							c-5-0.2-11.8-0.7-13.3-0.9c-0.9-0.2-1.5-0.2-2,0c-0.7,0.2-0.7,0.7-0.9,0.9C719.6,434.6,719.8,435.5,722.6,438.1z"/>
						<path class="st0" d="M744.6,387.8L744.6,387.8c-2-1.7-3.5-2.6-4.4-2.6h-0.2c-0.4,0-0.7,0.2-0.9,0.7c-0.2,0.4,0,1.3,1.5,2.8
							c1.1,1.1,1.3,2.4,1.1,3.7v0.2c-0.2,0.7-0.4,1.1-0.9,1.3c-0.4,0.2-2,0.4-8.1,0.4c-3.7,0-6.8,0.2-8.7,0.4
							c-2,0.2-3.5,0.9-4.4,1.5c-0.9,0.7-1.3,2-1.3,3.3c0,1.7,0.4,3.5,1.1,4.8c0.4,1.3,2,3,4.4,5c2.8,2.4,4.1,3,5,3
							c-0.9,0.2-2.2,0.7-3.5,1.7c-2,1.5-3,2.6-3,3.9c0,0.4,0.2,1.1,0.9,2c0.7,0.9,1.3,1.5,2.2,2.4c0.9,0.7,1.3,1.3,1.7,1.5
							c0.4,0.2,0.9,0.4,1.1,0.4c0.2,0,0.4,0,0.7-0.2c0.2-0.2,0.4-0.7,0.4-1.1c0-0.2,0.2-0.7,0.4-1.1c0.2-0.4,0.7-0.7,0.9-0.9
							c1.3-0.7,3.7-1.3,6.8-1.5c3-0.2,5.2-0.2,6.3,0.4c0.7,0.2,1.3,0.4,2,0.7c0.9,0,1.5,0,2-0.2c1.3-0.7,1.1-1.5,1.1-1.7
							c-0.2-0.4-0.4-0.9-2.2-2.6c-0.9-0.7-1.5-1.5-2.4-2c-0.9-0.7-1.5-0.9-2.2-0.9c-0.2,0-1.3-0.2-3.9-1.3c-2.2-0.9-3.7-1.5-4.6-1.7
							c-0.7,0-1.7-0.4-4.1-2.2c-2.6-1.7-3.3-2.2-3.7-2.2c0,0,0-0.2-0.2-0.2c-0.2-0.4-0.2-0.9-0.2-1.3s0-1.5,2.6-2.2
							c1.7-0.4,4.8-0.7,9.1-0.7c0.4,0,0.9,0,1.5,0c3,0,5.2,0,6.3-0.2c1.1-0.2,2.2-0.9,2.8-1.7c1.3-1.7,1.7-3.7,1.3-5.4
							c-0.4-1.7-1.7-3.7-3.9-5.7C744.8,388,744.6,388,744.6,387.8z"/>
						<path class="st0" d="M733.7,352.1c-1.7,0.9-3.5,1.3-5.9,1.5c-0.7,0-1.3,0.2-2,0.2c-1.3,0-1.7-0.2-2-0.4
							c-0.4-0.4-1.5-1.1-5.7-1.7c-3-0.4-5.9-0.7-8.5-0.9c-0.9,0-1.5,0-2,0c-0.4,0-0.9,0-1.5,0.2c-0.7,0.2-0.9,0.2-1.1,0.2
							c-0.2,0.2-0.4,0.4-0.7,0.9c-0.2,0.4-0.2,0.7-0.2,1.1v1.1c0,2.2,0.4,3.3,1.1,3.7c0.2,0.2,1.1,0.7,3.7,0.7c0.9,0,2,0,3,0
							c1.5,0,3,0,4.4,0c1.7,0.2,2.4,0.4,2.6,0.4c0.4,0.2,0.9,0.4,0.9,0.4s0,0,0,0.2c0,0.2,0,0.4-0.2,0.7c-0.2,0.4-0.4,0.9-0.9,1.7
							c-1.3,2.2-1.7,4.6-1.5,7c0.2,2.4,1.1,4.4,2.6,5.7c1.7,1.5,4.6,3,8.1,4.6c3.3,1.5,5.4,2.2,6.8,2.2c0.2,0,0.4,0,0.4,0
							c2.6-0.4,4.1-1.3,5.2-2.6c0.9-1.1,1.3-3,1.1-5.7c0-2.2-0.4-3.7-0.9-4.8c-0.4-1.1-1.7-2.4-3.5-4.4c-0.4-0.4-0.7-0.7-1.1-1.1
							c-1.1-1.1-1.5-1.7-1.7-2.2c0.7-0.2,2.2-0.9,4.8-2.2c1.5-0.9,2.6-1.5,3.3-2.4c0.7-0.7,1.1-1.5,1.1-2.6c0-0.9-0.7-2-2-3.5
							c-1.1-1.5-2.4-2.6-3.7-3.7c-1.1-0.9-1.7-1.1-2.4-1.1c-0.4,0-0.7,0.2-0.9,0.4c-0.4,0.4-0.9,1.3,0.7,2.6
							c0.7,0.7,0.9,1.1,0.9,1.3C736.4,350.4,735.9,351,733.7,352.1z M734.6,368.9c0.4,2,0,3.5-0.7,4.6c-0.4,0.4-1.3,0.9-2.2,1.1
							c-1.1,0.2-2.2,0-3.3-0.2c-1.1-0.2-2-0.9-2.6-1.5c-0.7-0.7-1.1-1.3-1.1-2c0-0.2,0-0.7,0.9-2c0.7-1.1,1.3-2,2.2-2.8l2.8-3
							l1.7,1.5C733.5,365.2,734.2,366.7,734.6,368.9z"/>
						<path class="st0" d="M739.8,322.9c-1.7-1.5-3-2.4-3.9-2.8c-1.1-0.4-2.4-0.4-4.1-0.2c-5.9,0.7-9.1,2.8-9.6,6.8
							c-0.4,2.8-0.4,4.8,0,6.1c0.4,1.3,1.3,2.6,2.8,3.9c3.5,2.8,7.2,4.6,10.7,5c0.4,0,1.1,0,1.5,0l0,0c2.8,0,5-1.1,6.5-3
							c1.5-2,1.7-4.6,0.9-7.8C744,327.7,742.2,325.1,739.8,322.9z M737.2,333.2c-0.7,0.9-2,1.5-3.9,1.7c-0.4,0-1.1,0-1.5,0
							c-1.7,0-2.4-0.4-2.4-0.4c-0.2-0.2-0.7-1.1,0-3.7c0.2-0.9,0.7-1.5,1.5-2.2c0.9-0.7,1.7-1.1,2.8-1.1c0.2,0,0.4,0,0.9,0
							c0.7,0,1.3,0.2,2,0.4c0.9,0.4,1.3,0.9,1.5,1.7C738.1,330.8,737.9,332.1,737.2,333.2z"/>
						<path class="st0" d="M736.6,278.5L736.6,278.5c-2.2-1.5-3.5-2.2-4.6-2.2c-0.2,0-0.2,0-0.4,0c-0.4,0-0.7,0.4-0.7,0.7
							c-0.2,0.4,0.2,1.3,1.7,2.6c1.1,1.1,1.5,2.2,1.3,3.7v0.2l0,0c-0.2,0.7-0.4,1.1-0.7,1.3c-0.4,0.2-2,0.7-7.8,1.3
							c-3.7,0.4-6.8,0.9-8.5,1.3c-2,0.4-3.5,1.1-4.1,2c-0.9,0.9-1.3,2-1.1,3.5c0.2,1.7,0.7,3.5,1.5,4.8c0.7,1.3,2.2,2.8,4.8,4.6
							c2.4,1.7,4.1,2.6,5.2,2.6c-0.9,0.2-2,0.9-3.3,2c-1.7,1.5-2.6,3-2.6,4.1c0,0.4,0.4,1.1,1.1,1.7c0.7,0.7,1.5,1.5,2.4,2.2
							s1.5,1.1,2,1.3c0.4,0.2,0.7,0.4,1.1,0.4c0.2,0,0.4-0.2,0.7-0.2c0.2-0.2,0.2-0.7,0.2-1.1c0-0.2,0-0.7,0.2-1.1s0.4-0.7,0.9-0.9
							c1.3-0.9,3.5-1.5,6.5-2.2c3-0.7,5.2-0.7,6.3-0.2c0.7,0.2,1.3,0.4,2.2,0.4h0.2c0.7,0,1.3-0.2,1.7-0.4c1.3-0.7,0.9-1.7,0.9-2
							c-0.2-0.4-0.7-0.9-2.4-2.4c-0.9-0.7-1.7-1.3-2.6-1.7c-0.9-0.4-1.5-0.7-2-0.7h-0.2c-0.4,0-1.3,0-3.9-1.1
							c-2.2-0.9-3.7-1.1-4.8-1.3c-0.7,0-1.7-0.4-4.4-1.7c-2.6-1.5-3.5-1.7-3.9-1.7c0,0,0-0.2-0.2-0.2c-0.2-0.4-0.2-0.9-0.4-1.3
							c0-0.4-0.2-1.5,2.4-2.4c2-0.7,5.4-1.3,10.5-1.7c3-0.2,5.2-0.4,6.1-0.9c1.1-0.4,2-1.1,2.6-2c1.1-2,1.3-3.7,0.7-5.7
							c-0.7-1.7-2-3.5-4.4-5.4C736.8,278.7,736.6,278.7,736.6,278.5z"/>
						<path class="st0" d="M729.8,243.4c-0.4,0-0.7,0.2-0.9,0.4c-0.7,1.1,0.4,3.9,0.9,5c0.2,0.4,0.7,1.7,0.7,4.6c0,2,0,3.5-0.2,4.4
							c-0.2,0.9-0.7,1.7-1.3,2.4l-1.3,1.3l-0.7-2.6c-0.7-2-1.7-4.1-3.7-5.9c-2-2-4.1-3.3-6.5-3.9c-2-0.7-3.7-0.4-5,0.7
							c-0.7,0.4-3,2.4-2.6,12.6c0,1.3,0.4,2.6,1.3,3.7c0.7,0.9,1.5,1.7,3,2.8c2.2,1.5,4.4,2.6,7,3.5c2,0.7,3.7,0.9,5.2,0.9l0,0
							c0.4,0,0.9,0,1.3,0c1.5-0.2,3.5-1.5,6.3-4.1c2.6-2.6,4.4-4.6,4.8-6.3c0.2-0.7,0.4-2,0.4-3.5c0-1.5,0-3-0.2-4.6l-0.2-0.9
							c-0.4-2.4-0.9-3.9-1.5-4.8C732,244.1,730.5,243.4,729.8,243.4z M719.4,266.1c-0.4,0-1.1,0-1.5,0c-0.9,0-1.1-0.2-1.3-0.2
							c-0.2-0.2-0.2-0.4-0.4-0.9c0-0.4-0.2-0.7-0.2-1.1c-1.5-4.1,1.1-7.6,1.7-8.5c0.9,0,2.2,1.5,2.6,5.2
							C721.1,262.6,719.8,265.2,719.4,266.1z"/>
						<path class="st0" d="M718.9,184l0.2,2.6l-7.4,1.1c-5,0.9-8.3,1.3-9.8,1.3h-0.2c-0.9,0-1.5,0-2,0.4c-0.4,0.2-0.7,0.7-0.7,1.1
							c0,0.7,0.4,1.5,3.7,3.5c2.8,1.5,3.7,1.7,4.1,1.7h0.2c0.2,0,2-0.2,8.7-0.7c3.5-0.2,5.9-0.4,7-0.9c1.3-0.2,2.2-0.9,2.8-2
							c1.1-1.3,1.3-3,0.9-5c-0.4-2-1.3-3.5-3-5c-2-1.5-3-2.2-3.9-2C718.7,180.7,718.7,182.5,718.9,184z"/>
						<path class="st0" d="M694.5,167.4c0.4,1.7,0.7,3,1.1,3.7c0.4,0.9,0.9,1.5,1.7,2.2c0.7,0.7,2,1.3,3.9,2.4
							c2.2,1.3,3.9,2,5.2,2.2c0.7,0.2,1.3,0.2,2,0.2c0.9,0,1.7,0,2.8-0.2c3-0.7,5-1.5,5.9-2.8c0.9-1.3,1.1-3.7,0.7-7.4
							c-0.2-2.4-0.7-3.9-1.1-5c-0.4-1.1-1.3-2.2-2.4-3l-1.7-1.5l1.7-0.9c3.9-1.7,5.4-4.4,4.6-7.8c-0.2-1.1-0.9-2.2-2.2-3.3
							c-1.1-0.9-3-2.2-5.9-3.7c-2-1.1-3.7-2-5.2-2.6c-1.5-0.7-2.2-0.7-2.4-0.7c-0.4,0-0.7,0.2-0.9,0.4c-0.4,0.9,0.7,1.7,1.1,2.2
							c0.9,0.7,2,1.5,3.3,2.2s2.4,1.5,3.3,2.4c1.3,1.1,1.5,1.5,1.5,1.7c0.2,1.1-1.1,2.2-2.2,2.8c-2,1.1-4.6,2.2-8.3,3l-2.4,0.7
							c-0.4,0.2-1.1,0.2-1.7,0.7c-0.9,0.4-1.1,0.4-1.3,0.7c-0.2,0.2-0.4,0.4-0.7,0.9c-0.2,0.4-0.4,0.9-0.4,1.1s-0.2,0.9-0.2,1.5
							c-0.2,1.1-0.2,2.4-0.2,4.1C694.1,164.6,694.1,166.1,694.5,167.4z M701.5,163.1c0-0.9,0.2-1.5,0.7-2.2c0.2-0.4,0.4-0.4,0.7-0.4
							h0.2c1.1,0.2,2.4,0.2,4.1,0.2h0.2c0.4,0,0.9,0,1.1,0s0.4,0,0.4,0.2c0.2,0.2,0.2,0.2,0.2,0.2s0,0.2,0.2,0.7
							c0,0.4,0.2,0.9,0.2,1.3c0,0.4,0.2,1.1,0.2,2c0.4,3.3,0,4.6-0.4,5c-0.4,0.4-1.3,1.3-4.1,1.7c-0.2,0-0.4,0-0.7,0
							c-1.5,0-2.6-2.2-3-3c-0.2-0.9-0.2-1.7-0.4-2.8C701.5,165,701.5,163.9,701.5,163.1z"/>
						<path class="st0" d="M722.9,210.6c-2.6-1.1-4.1-1.3-5.2-0.9c-1.1,0.7-2.2,1.7-3,3.7c-0.9,1.7-1.3,3.7-1.5,5.9v0.2
							c-0.2,2-0.7,3.3-1.5,3.7h-0.2c-0.2,0-0.4-0.2-0.7-0.9c0-0.2-0.2-0.7-0.2-2c0-0.4,0-1.1,0-1.7c0-1.3,0-3,0.2-3.7l0,0
							c0.7-4.1-2-5.9-2.2-5.9c-1.1-0.4-1.7-0.9-2.4-0.9c-0.7-0.2-1.3,0-2,0.2c-0.7,0.4-1.1,0.9-1.3,1.5c-0.2,0.7-0.7,1.5-0.9,2.8
							c-0.9,3-0.2,8.1,0.9,10s3.3,3.5,6.5,4.8c2,0.7,3.5,1.1,4.6,1.1c1.3,0,2.6,0,3.7-0.7c1.3-0.7,2.4-1.3,2.8-2.2
							c0.4-0.7,0.7-2.2,0.9-4.4c0.2-4.1,0.9-5.2,1.3-5.4c0,0,0.2,0,0.4,0c0.9,0,2.2,0.4,2.6,1.1c0.2,0.7,0.4,1.3,0.4,2.4
							c0,1.1-0.2,2-0.4,2.8l-1.5,2.6c0,0,0,0,0,0.2c0,0.2-0.7,2.6,0.2,3.9c0.2,0.4,0.9,0.9,1.7,0.9c1.3,0,3-0.9,5.2-2.4l0.2-0.2
							l2-3.9l0,0l0.2-0.7c0.4-1.7,0.7-2.4,0.2-3.7c-0.4-1.5-1.7-3.3-3.7-5.2c-1.1-1.1-3.7-2.2-5.9-3
							C724.2,211,723.5,210.8,722.9,210.6z"/>
					</g>
				</g>
			</g>
			<g>
				<path class="st0" d="M146,338.4c-0.9,39.2-2.4,39.9,9.8,39.2c5-0.2-2.4-20.3-0.2-39.4c2.2-19.2-5.9-63.6,25-104.3
					c3.3-4.4,16.6-7.4,24.2,0.9l0,0c-25.9,34.2-24.2,56-24.2,56l0,0c-2,24.4-0.2,70.1,1.3,81c0.9,6.5,2.4,11.3,4.6,16.8
					c2.2,5.4,3,13.3,10.9,2.8c7.8-10.5,3.9-17.9,8.3-30.3c14.4-40.3,34.6-85.8,38.3-100.4c3.5-14.6,10.2-24.4,10.2-24.4
					c5.4-5.9,20.9-31.4,74.9-54.7c6.3-2.6,8.1-3.9,12-7.4s-0.2-4.6-3-5.7c-2.6-1.1-3.5,0.4-8.7,4.1c-5.4,3.9-47,20.5-72.5,46.6
					c0,0-2.6,6.1-22.4,15.9c-7.6,3.7-18.1,7.6-27.7,13.5l0,0c7.2-16.3,7.4-11.5,13.3-16.3c5.9-5,6.3-3.7,2.2-8.7
					c-2.2-2.6-5.2-1.5-8.1,0.9c-7.2-1.7-20.7-3.3-34.4,1.5c-7.4,2.6-13.7-1.5-13.7,15C166,240.8,147.3,286.1,146,338.4z
					 M219.8,270.7c4.1-3.5,6.5-8.3,8.1-8.5c0,0,12.6-1.5,1.5,6.3s-16.8,12.4-18.5,14.6C209.1,285.7,205,283.3,219.8,270.7z"/>
				<path class="st0" d="M98.7,459.2c-5.9-46.6,1.1-126.3,4.1-146.6c17.6-120.4,53.8-171,61.6-202.1c7.8-31.1-8.9-6.5-8.9-6.5
					c-15,44.9-42.5,118.2-49.7,152.2c-21.6,101-18.5,214.9-17.4,228.4C89.8,498.2,104.8,505.8,98.7,459.2z"/>
				<path class="st0" d="M522.1,107.1c-22.2,5.4-40.7,3-64,19.8c-23.3,16.8-30.3,18.5-5,13.7s36.8-12.6,74.9-13.1
					c38.1-0.4,60.3-17.9,74.7-50.3c6.8-15.2,6.5-13.7,7.8-21.6c1.1-7.8,37,12.4,31.1,69.3c-5.9,56.4-4.8,85.8-17.9,147.9
					c-2,9.4-25,67.7-13.7,72.1c7.8,3,24.4,10.2,32,12c7.4,1.7,10.5-5.4,8.1-17c-2.4-11.8-7.2-22.4-17.9,5c0,0,25.5-68.4,16.1-92.8
					c-3.5-9.4-7.8-11.8-9.6-14.2c-1.7-2.4,10.9-58.6,10.5-114.1c-0.2-19.8,17-42.9-41.2-92.8c-7-5.9-8.7-2.4-11.1,12.6
					s0.7,16.1-7.8,28.7c0,0,1.7-23.7-14.4-22.2c-13.7,1.3-33.5,5.7-35.9,8.9c-2.4,3,0.2-0.7,4.6,19.8
					C545.4,89.3,544.1,101.9,522.1,107.1z"/>
				<path class="st0" d="M706.3,133.7c4.6-0.9,2.6-5.9,3.3-13.5c0.7-7.4-5.9-56.8,6.5-66c3.5-2.6,7.2-21.8,8.1-37.7s-9.4-5.7-8.1,0
					c1.1,5.7-7.2,26.1-12,33.8c-4.8,7.6-5.4,20-2.4,73.6C701.9,123.9,701.9,134.8,706.3,133.7z"/>
				<path class="st0" d="M699.1,685.1c-4.6-1.5-3.9,8.3-3.9,8.3c-27.4,72.1-55.1,111.7-63.2,123.3c-8.1,11.3-4.8,13.7-25.5,6.3
					c-20.7-7.4-76.2-6.5-79.3-4.8c-3,1.7-2.6,5,2.2,6.5c4.8,1.5,3.3-1.5,10.5-1.5c47.3,0,69,7.8,74.9,8.3c8.5,0.9,4.1,12.6,10.5,5.4
					c9.6-11.1,15.5-20.9,19.2-26.6c31.8-50.3,52.9-103.7,56-113C703.7,688.1,703.7,686.6,699.1,685.1z"/>
				<path class="st0" d="M681.7,682.7c-2.6-4.1,0.9-5.4-18.7-16.1c-4.4-2.4-12.4-6.5-21.8-11.1c-7.8-3.9-5.7-15-2-22.2
					c15-29.8,3.5-58.6,6.8-66.4c25.9-63.2,35.1-165.5,34.8-173.8c-0.2-8.3-14.2-0.7-9.4-22.2c4.8-21.6,5.4-52.7,7.8-66.6
					c2.4-14.2,3-17-3.5-16.3s-7.2,4.1-10.7,20.3c-3.5,16.1-11.5,49-9.1,52c2.4,3,8.9,0,8.9,0c1.1,19.2-4.1,52.7-7.2,80.8
					c-10.5,98.7-46.6,199.7-46.6,199.7c-14.6-7.2-28.7-14.2-36.8-18.3c-0.4-0.9,0-3.9-0.7-5c5.7-6.5,8.3-12,8.3-12
					c32.2-53.8,29.6-88.9,29.6-88.9c-34.6-31.8-27,0-27,0c21.1,13.5-20.7,62.3-22,63.2c0,0-9.1,2.4-22.4-0.9
					c-1.7-0.4-3.7-0.9-5.4-1.3l0,0L524,555.9c1.5-5.2,9.6-12.6,11.8-14.8c2.2-2.2-0.4-5.4-0.4-5.4c-5.9-3.7-7.4-4.4-12.4-10.5
					c-5-6.3-10.9-8.3-10.9-8.3c-7-6.3-14.6-5.4-14.6-5.4c1.1-6.1,2.2-11.5-2.6-15.5c-24.2-20.3-24.6,4.4-24.6,4.4
					c-1.7-0.7-9.1,4.6-3.9,7.8c5.2,3.3,12.2,3.9,12.2,3.9c-0.9,5.7,5.2,7,5.2,7l0.2,1.1c0,0-0.2-1.1-3.7,2.6
					c-3.3,3.5-3.7,17-10.9,12.8s-15.9-5.4-15.9-5.4c-1.5-4.4-2.2-6.5-5-7c-2.8-0.2-3.5-0.2-3,5.9c0.4,6.5,2,15.7,7.6,16.8
					c22,4.1,25.7,15.7,26.1,20.3c-15.5-2.4-29.8-4.4-43.1-5.7c-0.9-9.8-9.4-17-9.4-17C416.9,527.8,401,527,401,527
					c1.1-5.7,2.6-13.7,2.6-13.7c2.2-9.6,3.9-12.6,4.4-17.9c1.7-16.1-9.1-17.4-11.5-19.4c-4.1-3-6.5-7-6.5-7c-3-9.6,0.7-22,0.7-22
					c3-3.9,10.2-4.1,11.3-2c1.3,2,4.4,4.1,7.4,5.7c3,1.5,16.6,2.4,14.6-0.7c-1.7-2.8,1.3-3.5,1.3-3.5c3.9-0.4,2.4-4.6-0.7-5
					c-4.1-0.7-0.2-6.8-0.2-6.8c6.8-2.6,7.2-1.7,10.7-6.5c3.3-4.8,2.6-4.8,0.9-7.2c-2.8-3.9-8.5-1.1-8.1,0c0.7,1.1,1.7,2.8-2.8,5.2
					c-4.6,2.4-10,0-8.3-2c9.6-9.6-20.5-5.9-20.5-5.9c-7.4-6.3-11.1-5.4-20.5,0c-9.4,5.4,0,14.4,0,14.4c0.7,3,1.3,8.7,1.7,9.8
					c-8.5-1.7-11.1-1.7-18.7-1.3c0,0-4.8-4.1-17.4-8.9c0.4-43.6,6.1-88.9,12.2-121.5c51-45.1,113-90.6,186-128
					c-8.3,9.6-60.5,69.9-84.1,117.6c-7.2,14.8-39,46.4-1.7,74.9c24.2,18.5,36.4,31.6,67.9,50.5c9.6,5.7,21.1,11.8,34.6,18.7
					c4.6,3.3,6.3,5.4,2,4.6l0,0c-16.3-3-36.2-5.4-57.7-5.4c-9.8,0-30.9,0-43.1,4.1c-12.2,4.1-6.8,7.6,4.6,4.8
					c11.1-2.8,41.2-5.7,58.8,0c17.4,5.7,44,6.5,44,6.5s19.4,0.9-13.9,2.2c-33.1,1.3-93.6,8.9-119.8,8.9c-6.8,0-29.4,22.4-5,17.4
					c11.3-2.2,51.6-14.4,98.2-17c46.6-2.6,42-8.9,67.3-1.7c6.3,1.7,10.2,1.3,12.2,5.9c1.7,4.6,2.6,0,6.8-3.5s3-0.4,5.4,1.7
					c2.4,2.2,5.9,0.9,10.7-1.7c5-2.6,8.1-8.1,0-9.4c-4.1-0.7-10-0.9-14.8-0.7c-14.6-0.7-95.4-44.4-96.5-45.1
					c-15.7-10.5-31.4-22.2-45.1-35.5c-25.9-25-34-27.2-15.2-62.7c26.4-50.1,73-116.1,102.6-138.9c3.7,1.5,8.7,3.9,14.2,0
					c22.4-15.5-8.3-11.3-24.6-7.8C467.4,189,409.3,209,368.5,226.7l0,0c0,0-2.8-6.3,1.3-22.6c22.2-66.4,44.6-116.5,55.5-140
					c7-0.9,12.2-1.5,17.9-1.3c10.7,0.2,33.3-15.2,5.4-12.2c-8.1,0.9-13.7,2-18.3,2.8c0.7-1.3,1.1-2.2,1.3-2.8
					c8.1-19.8,8.1-18.7,4.6-22.4c-3.5-3.7-8.9,8.1-8.9,8.1c-3,6.8-5.9,13.5-8.9,20c-5.7,1.1-12,1.7-23.3,1.5c0,0-17.2,12.6,5.4,9.8
					c5.2-0.7,9.8-1.3,13.9-1.7c-25.7,60.1-45.7,116.5-61.4,168.1c-1.5,0.7-3,1.3-4.6,2.2l0,0l0,0c-45.7,21.6-63.4,37.7-63.4,37.7
					c-19.2,13.3-2.2,10,10.2,4.6c-18.1,22-73.2,93.6-86,156.6c-15,20.3-23.3,34-26.1,39.2c-6.1-18.3-8.7-35.5-6.3-47.5
					c7.2-34-5.9-22.9-19.4-10.2c-13.5,12.6-6.8,16.1,0,47.9s32.2,94.9,40.7,112.2c0.2,0.4,0.9,1.5,1.5,2.8c-0.7,2.8-1.3,7.2-1.1,12
					c-3.7-5.9-6.1-10.2-6.1-10.2s-12.8-13.5-14.4-15s-12.6-5.9-6.5,5.9c5.9,12,28.3,38.3,37.9,48.8c9.6,10.5,29,29.8,34.4,35.1
					c5.4,5,10.5,10.7,44.4,12.6c34,1.7,31.1-7.8,72.5-14.6c6.3-1.1,12.4-2.2,18.3-3.3c-1.1,0.4-2.2,0.9-3,1.3
					c-39,19.6-47.9,46.4-53.4,56.2c-11.1,20.3-22.2,19.4-31.1,18.3c-17.2-2.4-6.1,11.1,0.2,17.4c-12.2,1.7-25.5,1.3-35.9-4.4
					c-10.9-5.9-19.2-23.3-50.1-67.5c0,0-7.6-25.7-30.5-21.6c-23.1,4.1-2.6,4.8,9.4,26.4c12,21.6,25,35.9,28.7,65.1
					c3.5,29.2,20.3,18.5,38.8,19.2c12,0.4,28.1,9.6,72.7-10c15.5-3,37.7-8.1,54.2-14.4c2.8,7.8,10.2,16.8,28.3,5.2
					c18.5-10.7,8.3-1.7,8.3-1.7l0,0c-17.4,9.8,10.9,7.4,10.9,7.4s35.7-24.4,68.8-14.6c10.2,3,24.4,14.4,38.5-4.8
					c2.2-3,3.9-2.4,6.3,5.4s12,6.5,16.1,3c4.1-3.5,34,13.1,38.3,11.3c4.1-1.7,8.5,5.9,19.8-46.2c4.1-19.6,3.5-28.7,20.3-23.7
					c10.5,5.9,20,10.5,27,12.8C686.3,698.8,684.5,686.8,681.7,682.7z M486.6,196.4c-7.4,5.4-14.8,10.7-21.8,15.9l0,0
					c-12.4,9.1-25.9,14.6-25.9,14.6l0,0c13.7-9.6,28.3-19.4,43.6-29.4C483.7,197.3,485,196.8,486.6,196.4z M369.8,242.1
					c10-5.7,27.4-13.9,58.6-26.1c3.7-1.3,7.6-2.6,11.3-4.1c-7.8,5.9-15.7,12-23.1,17.9l0,0l0,0c-5.9,4.6-11.8,9.4-17.4,13.9
					c-12,5-23.1,7.2-32,8.1C368.3,248,369.2,244.7,369.8,242.1z M365.1,260.4c6.5-1.1,12.6-2.4,18.3-3.9c-7.6,6.3-14.8,12.6-22,18.7
					C362.7,270,363.7,265,365.1,260.4z M408.2,249.3c16.6-7,3.9,3.7,0.7,6.5c-0.2,0.2-0.4,0.4-0.7,0.7l0,0l0,0
					c-18.7,15.2-36.2,30.3-52.5,44.6c0.9-4.4,1.7-8.5,2.6-12.6C373.8,275.7,390.3,262.6,408.2,249.3z M352.4,261.9
					c0.4,0,1.1,0,1.5-0.2c-1.5,8.1-3,15.7-4.4,23.5l-1.1-9.6C349.8,271.1,351.1,266.5,352.4,261.9z M520.1,535.5
					c0,0,9.4,1.1,1.1,10.2C519.5,547.9,519.7,539.4,520.1,535.5z M478.7,548.1c0.2-4.4,8.7-7.4,11.3-8.1c0,0,5.9,13.5,10.5,20
					c5.4,7.6-6.5,2.2-8.7,0 M409.3,544.8c13.9,4.8,17.4,11.1,18.3,15c-4.8-0.4-9.6-0.7-14.2-1.1c-0.7-0.7-1.5-1.5-2.2-2
					C408.8,555.5,409.3,544.8,409.3,544.8z M383.1,486.9c2,10.2,5.2,26.4,5.4,33.5c0.2,7.2,3.5,18.3,10.2,25
					c4.6,4.6,4.8,9.8,4.4,12.6c-18.9-0.9-34.4-0.7-45.3,0c-5.7-20.7-9.6-41.6-12.2-62.1c18.5-2.4,32.2-13.9-1.1-10.7
					c-0.9-8.1-1.3-16.1-1.7-24.2V456c5.9,7.2,7.8,6.3,7.8,6.3c1.5,0.2,9.6,0.4,12,0.9c-1.7,5,0.4,7.2,3,8.7c3.5,2.2,5.9,3.5,5.9,3.5
					C377.7,476.7,383.1,486.9,383.1,486.9z M299.1,573.6c-7,1.5-14.4,2.6-22.2,2.2c-2.4-9.8-9.1-41.8,8.5-44.9
					c2-0.4,7.6-1.7,13.9-2.2C298.4,550.3,298.6,565.5,299.1,573.6z M296.2,508.5c0,0-2-2.2-3.7-5.9c3-0.9,5.9-1.5,8.7-2.2
					c-0.2,2.8-0.4,5.9-0.7,8.5C299.1,508.7,297.5,508.5,296.2,508.5z M290.4,496.5c-0.9-3.9-0.9-8.3,1.3-12.8c0,0,2.2-3,8.5-19.8
					c0,0,3-4.6,5.2-5.4c-1.3,11.3-2.6,25-3.5,34.8C297.8,494.3,294.1,495.4,290.4,496.5z M296.5,455.8c0,0-9.4,7.2-13.5,15
					c0,0-2.4,1.1-5.2-0.7c0,0-2-1.1-1.7-1.1c1.5-0.2,0.9,15.5,9.8-21.3c0,0,3-5.2,4.4-10.5c1.1-4.4-0.4-7.6-0.4-13.7
					c6.8-21.6,14.4-46.2,23.3-73.8c4.4-4.4,8.7-8.5,13.3-12.8c-5.9,26.1-10.5,50.3-14.2,72.7C308.6,424.8,306,447.1,296.5,455.8z
					 M311,529.6c5,1.3,9.6,4.4,12,10c1.5,3.7,5.4,14.6,4.4,24.6c-4.6,2-10,3.9-15.7,5.9C311,556.6,310.8,543.1,311,529.6z
					 M326.3,519.1c-3.5-2-8.5-4.8-14.8-7.2c0.2-4.6,0.4-9.1,0.7-13.9c9.1-1.7,16.8-2.2,25.5-2c2.8,33.8,7.8,54.4,10,62.5
					c-1.1,0-2,0.2-2.8,0.2C342.4,549.6,335.7,524.1,326.3,519.1z M357.2,445.7c1.5,0.2,8.7,3.3,16.1,4.4c-1.3,1.1-2.6,0.9-4.6,3
					c-5.4,2-10,5.7-15.2,3.3c0,0-1.7-1.7-11.8-7c0-0.4-0.2-11.5-0.2-12C347.4,442.7,353.3,445.1,357.2,445.7z M344.4,319.7
					c-10,71.4-10.5,127-7.8,166.6c-8.5,1.1-16.6,2.6-24.4,4.6c3.3-57.1,12-112.2,23.5-163.1C338.7,324.9,341.5,322.3,344.4,319.7z
					 M306.7,271.7c1.5-1.1,2.8-2.2,4.6-3c0,0,14.8-5.7,23.3-1.7c0,0.2-8.1,21.8-14.8,46.2c-45.5,43.1-78,80.4-99.7,108.5
					C228.9,385.2,253.6,336.4,306.7,271.7z M217.2,433.5c20.5-27.9,52.3-65.3,99.3-108.7c-0.9,3.5-1.7,6.8-2.4,10
					c-0.9,2.4-1.7,4.8-2.4,7.2c-43.1,42.2-74.5,78.8-96.3,106.5C215.9,444,216.3,438.8,217.2,433.5z M307.3,354.9
					c-13.9,40.9-24.8,74.5-33.3,101.7c-2.8,2.4-4.8,3.9-6.8,9.4c-2.4,6.3-3-1.5-3-1.5s3.7-19.8-13.3-17.9c0,0,1.3-12.8-10.9,7.6
					c-6.8,10.9-7.2,19.2-1.7,20.7c5.4,1.3,7.4,2.4,11.3,1.7l4.8,2.8c0,0,1.1,2.8-0.2,7c0,0-7.4,2.8,1.5,12.2c1.5,1.5,3,3.3,4.4,5
					c-0.2,0.4-0.2,0.9-0.4,1.1c-6.1,1.5-12,2.6-18.1,3.5c0,0-2.2,0.4-5.2,1.1c-7.4-7-19.2-21.8-20.7-48.6
					C236.8,432.5,267.5,395,307.3,354.9z M259.2,560.1c0.7,3,2,7.2,0.9,12.4c-3-1.1-6.3-2.4-9.4-3.9c1.7-10,5.2-27.7,13.5-58.4
					c0,0,0,0,0.2,0c3.3,5.7,4.6,11.3,3.5,15.5C265.7,532.6,254.9,537.2,259.2,560.1z M186,482.3c2.8-5.4,9.4-17.6,21.3-35.1
					c-0.4,4.4-0.7,8.7-0.7,12.8c-7.8,10.7-14.2,19.6-18.9,26.6C187.4,485.2,186.7,483.9,186,482.3z M191.3,494.7
					c4.4-6.3,9.6-14.2,16.1-23.1c2,15,8.1,28.7,19.8,39.9c-7.4,2.2-12,4.8,2.8,6.3c10.2,0.9,19.8-3.5,19.8-3.5
					c2.6-0.7,5.2-1.5,7.6-2.2c-8.5,30.5-12,45.9-13.1,52.7c-0.2-0.2-0.4-0.2-0.7-0.4C223.3,550.3,203.9,522.6,191.3,494.7z
					 M600.9,675.5c-7.8,17.4-10.2,36.4-30.5,44.9c-18.3,7.6-67.3-6.5-116.3,5.4c-10.7,2,10.5-18.1,26.8-32.9
					c5.9-4.4,10.5-8.3,13.7-11.5c1.1-1.1,2.2-2.2,3.3-3.3l0,0c10.7-11.1,11.1-15.5,8.7-30.3c-2.6-16.1-2.4,3-34,22.6
					c-31.6,19.8-62.5,47.7-79.5,51.6c-5.9,1.3-14.6,6.1-14.6,6.1c-5.2,1.3-10.9,2.6-16.1,3.7l0,0c18.1-10.7,39.2-24.8,64.5-43.6
					c25.7-19.2,26.4-19.8,30.5-23.3c4.1-3.5,6.5-16.1-11.5,0c-18.3,16.1-62.1,49.4-129.4,73c-2.6,0.9-5.7,1.7-8.9,2.8l0,0
					c-7.2-2-11.3-5.7,0-9.4c25.3-8.1,31.1-27.4,47.3-49c13.5-18.1,38.1-30.5,57.7-38.1c16.1-3,28.3-5.2,34.8-5.2
					c12.6-0.2,22.2-7.8-6.5-7c-28.7,0.9-41.6,9.8-104.5,22.2s-74.3,4.6-91.7-9.4c-7-5.7-12.2-15.9-19.8-23.7
					c4.1,1.5,8.9,2.8,14.6,3.7c7.4,5.4,15,8.1,21.3,5.4c93.2-39,174-28.7,177-29.2c3-0.4,63.2,6.3,0.9,7.6s-98.2,18.7-102.6,21.1
					c-4.6,2.2-2.2,4.6,14.8,0.9c34.8-7.4,45.3-8.5,78.8-10.2c55.5-3,93.2,24.2,117.4,15.7h7.8c3.9,0.2,7.8,0.2,12-0.4
					c0.2,0.2,2.8-2.6,2.8-2.4c5.7,5.4,19.2,15,34.4,25C604.8,661.6,604.8,666.8,600.9,675.5z M651.6,676.6
					c-44.6-20.3-72.1-39.6-72.1-39.4c0,0-3.7-3.7-7-5.7c1.5-1.1,2.6-2.6,3-4.4c32.7,18.3,67.7,36.6,76.9,42.5
					C663.4,675.9,656.6,678.8,651.6,676.6z"/>
			</g>
		</g>
	</g>
</g>
</svg>
