<?xml version="1.0" encoding="utf-8"?>
<!-- Generator: Adobe Illustrator 25.0.1, SVG Export Plug-In . SVG Version: 6.00 Build 0)  -->
<svg version="1.1" id="Logo" xmlns="http://www.w3.org/2000/svg" xmlns:xlink="http://www.w3.org/1999/xlink" x="0px" y="0px"
	 viewBox="0 0 211 347.6" style="enable-background:new 0 0 211 347.6;" xml:space="preserve">
<style type="text/css">
	.st0{fill:#FFFFFF;}
</style>
<path class="st0" d="M211,336.3c-1-0.2-1.7-0.3-2.4-0.5c-19.1-4.5-38.3-7.3-57.9-6.4c-14.6,0.7-29.1,3.3-43.1,7.8
	c-1.1,0.4-2.3,0.4-3.4,0.1C82.9,330.5,60.4,328,38,330c-11.9,1.1-23.7,3.1-35.3,5.9c-0.7,0.2-1.4,0.3-2.5,0.5c0.5-0.9,0.8-1.4,1.2-2
	c8.2-12.5,16.4-25,24.6-37.4c0.8-1.3,2.2-2.2,3.7-2.5c10.1-2.4,20.5-3.9,30.9-4.5V90.7H44.8v-7.4H61c0.7-3.4,1.2-6.6,1.9-9.8
	c5.4-22.9,17.7-41.1,36.8-54.7c1.5-0.9,2.4-2.6,2.3-4.3c-0.2-4.8,0-9.5,0-14.4h7.5c0,4.8,0.1,9.4,0,14.1c-0.2,1.9,0.8,3.7,2.4,4.7
	c21.2,15.3,34,35.9,38,61.8c0.3,2,0.9,2.6,2.9,2.6c4.5-0.1,9.1,0,13.8,0v7.4h-15.9v199.1c5,0.5,9.9,0.9,14.8,1.7
	c5.7,0.9,11.4,2.1,17.1,3.3c0.9,0.2,1.7,0.8,2.3,1.6c8.5,12.8,17,25.7,25.5,38.5C210.6,335.3,210.8,335.8,211,336.3z M9.5,329.1
	c0.4,0,0.9-0.1,1.3-0.1c10.4-2.6,20.9-4.2,31.6-5c19.4-1.4,38.5-0.1,57.2,5.7c3.9,1.3,8.1,1.3,12,0c27.3-8.1,54.8-7.8,82.4-2.1
	c2.5,0.5,5,1.1,7.7,1.7c-0.1-0.3-0.3-0.7-0.5-1c-6.6-9.1-13.1-18.2-19.7-27.2c-0.6-0.7-1.4-1.3-2.3-1.6c-8.7-2.8-17.7-4.3-26.8-4.3
	c-13.6-0.3-27.2,1.3-40.4,4.8c-4.2,1.2-8.6,1.2-12.7,0c-10-2.7-20.3-4.2-30.7-4.6c-11.5-0.7-23,0.5-34.2,3.5c-2.4,0.6-4.6,2.1-6,4.1
	c-5.7,8.2-11.7,16.3-17.5,24.4C10.5,327.6,10.1,328.2,9.5,329.1z M128.7,258.3c0.1-1,0.1-1.7,0.1-2.4c0-54.2,0-108.5,0-162.8
	c0-0.9,0.6-2.5-1.1-2.4s-4-1.4-4.9,1.4c-1.7,5.6-6.1,10-11.7,11.7c-1,0.2-1.7,1.2-1.5,2.2c0,29.9,0,59.8,0,89.7
	c-0.1,0.7,0.1,1.4,0.5,2c2.9,3,3.7,6.8,4.4,10.6c1.2,6.9,2.2,13.9,3.3,20.8c0.1,1.5,1,3,2.2,3.9c5.6,3.9,7.7,11.2,5.2,17.5
	c-0.7,1.8-1.6,3.5-2.5,5.3c-0.8,1.7-0.5,2.3,1.4,2.4C125.5,258.3,127,258.3,128.7,258.3L128.7,258.3z M82.8,258.1
	c0.6,0.1,1.1,0.2,1.6,0.2c4.9,0.1,6.1,0.7,3.2-4.9c-4.2-8-2.5-15,4.5-20.7c0.7-0.6,1.1-1.3,1.3-2.1c1.1-6.7,2.1-13.4,3.3-20.1
	c0.7-4.1,1.3-8.3,4-11.7c0.8-0.9,1.2-2.1,1.3-3.3c0.1-16.1,0-32.3,0-48.4c0-13.5,0-27,0-40.6c0.2-1.2-0.6-2.3-1.8-2.5
	c-5.5-1.7-9.9-6-11.6-11.6c-0.3-0.7-0.8-1.3-1.5-1.5c-1.4-0.1-2.9-0.2-4.3-0.1L82.8,258.1z M78.3,290.3V90.9h-3.2V290L78.3,290.3z
	 M133.1,90.8v199.4l3.2-0.3V90.8H133.1z M66.9,90.8v198.9h3.2V90.8H66.9z M101.8,295.2v-49.3h-3.2c-4.5,0-4.3,0-5.2,4.5
	c-0.7,3.3-0.1,5.6,2.8,7.4c0.5,0.3,0.8,1.5,0.7,2.2c-0.1,1.8-1.7,1.4-2.8,1.3c-1.8-0.2-2.6,0.4-2.7,2.2c-0.2,2.3-0.8,4.6-1,6.9
	c-0.1,1.5-0.8,1.9-2.1,1.8c-1.8-0.1-3.5,0-5.4,0v18.2L101.8,295.2z M128.8,272.2c-2.1,0-3.9-0.1-5.7,0c-1.3,0.1-1.9-0.4-2-1.7
	c-0.3-2.4-0.9-4.7-1.1-7.1c-0.1-1.8-0.9-2.2-2.6-2.1c-1,0-2.2,0.5-2.8-1.1s0.3-2.1,1.3-2.9s2.4-2.1,2.5-3.2
	c-0.1-2.5-0.5-4.9-1.1-7.3c-0.2-0.4-0.5-0.8-1-0.9c-2.2-0.1-4.4,0-6.6,0V295c6.1-1.4,12-2.7,18-4.1c0.6-0.2,1-0.7,1.1-1.3
	C128.8,284,128.8,278.3,128.8,272.2L128.8,272.2z M144.5,289.6V90.8c-3.3-0.3-3.3-0.3-3.3,2.8v196L144.5,289.6z M143.8,82.9
	c0-0.6-0.1-1.2-0.2-1.8c-2-10.2-5.3-20.1-9.9-29.4c-4.3-8.3-9.6-15.8-17.2-21.5c-2.1-1.6-4.4-2.9-7-4.5c0,4.1-0.1,7.4,0.1,10.8
	c0.2,0.8,0.7,1.5,1.5,1.9c4.7,2.4,9,5.7,12.6,9.6c8.6,9.3,13.4,20.6,16.3,32.7C140.5,82.8,141.3,83.6,143.8,82.9L143.8,82.9z
	 M101.9,26.3c-0.3,0-0.6,0-0.9,0c-0.5,0.2-1,0.4-1.4,0.7c-4.7,2.8-8.9,6.3-12.5,10.4c-9.4,10.9-14.5,23.9-18,37.6
	c-0.6,2.6-1.1,5.2-1.7,7.7c2.4,0.8,3.5,0.2,4-2.1c0.9-3.8,2-7.5,3.4-11.1c5.1-13.4,12.7-24.8,26-31.5c0.5-0.3,0.9-0.7,1-1.3
	C102,33.3,102,29.8,101.9,26.3L101.9,26.3z M109.5,43.3c0.1,1.2,0.1,2.4,0,3.6c-0.9,5.1,1.1,8.4,5.4,11.6
	c7.8,5.6,13.6,12.9,16.5,22.3c0.8,2.7,0.9,2.8,4.3,2c-1.2-3.7-2.3-7.4-3.6-11c-2.9-7.9-6.6-15.4-12.5-21.6
	C116.9,47.1,113.4,44.7,109.5,43.3L109.5,43.3z M76.1,82.8c3,0.7,3,0.6,4-2.1c0.7-2.1,1.5-4.1,2.4-6c4.1-8.1,10.6-14.2,17.9-19.4
	c0.6-0.4,1.5-1.1,1.5-1.7c0.1-3.3,0.1-6.7,0.1-10C91.7,45.8,77.2,68,76.1,82.8L76.1,82.8z M84.3,82.9c3.6,0.6,3.5,0.5,4.8-2.6
	c1.9-4.9,6-8.8,11-10.4c0.6-0.2,1.7-0.7,1.7-1.1c0.2-2.6,0.1-5.3,0.1-8C94.6,63.8,85.9,74.8,84.3,82.9L84.3,82.9z M109.5,60.5
	c0,2.5,0.1,4.5,0,6.4c-0.1,1.7,0.4,2.6,2.2,3.2c5.1,1.6,9.1,5.6,10.8,10.6c1.1,2.9,1.3,3,4.9,2.1C124.4,73.3,118.1,65.4,109.5,60.5z
	 M101.8,229.3v-25.6l-0.8-0.1c-1.5,8.9-3,17.7-4.5,26.8L101.8,229.3z M110.4,203.5l-0.7,0.1v25.7l5.2,0.9
	C113.4,221.1,111.9,212.3,110.4,203.5z M101.8,231.8c-2.1,1.1-4.8,1.5-5.6,3c-1.2,2.3-1.1,5.3-1.5,8h7.3c0-3.1,0-6,0-8.8
	C102,233.5,101.9,233,101.8,231.8L101.8,231.8z M116.8,242.8c-0.4-2.7-0.8-5.3-1.3-7.9c-0.1-0.5-0.4-0.9-0.8-1.2
	c-1.6-0.6-3.3-1.1-5.2-1.8v10.8L116.8,242.8z M102,83c0-2.2,0-4.3,0-6.4c0-0.7-0.1-1.4-0.1-2.2c-4.2,0.8-8,4.7-8.5,8.5H102z
	 M109.5,74.1c0,2.8,0,5.3,0,7.7c0,0.4,0.6,1.2,0.9,1.2c2.6,0.1,5.1,0.1,8,0.1C117.1,78.9,113.8,75.5,109.5,74.1L109.5,74.1z
	 M93.3,90.8c0.9,4.2,5,8.2,8.5,8.3v-8.3H93.3z M109.6,99.3c4-0.6,8.1-4.8,8.4-8.4h-8.4V99.3z M128.8,269c0-2,0.1-4.2-0.1-6.4
	c-0.2-0.6-0.6-1-1.1-1.2c-1.5-0.1-2.9-0.1-4.6-0.1c0.2,1.7,0.4,3.1,0.6,4.4c0.6,4,0.6,4,4.8,3.5C128.4,269.3,128.5,269.2,128.8,269z
	 M82.8,261.5v7.8h4.5c0.4-2.5,0.8-5.1,1.2-7.8H82.8z M121.2,250.4c2.6-4.4,1.6-10.6-2.1-13.3C119.8,241.6,120.4,245.8,121.2,250.4
	L121.2,250.4z M90.3,250.2c0.7-4.4,1.3-8.4,2.1-12.9C88.8,240.6,87.9,245.9,90.3,250.2L90.3,250.2z"/>
<path class="st0" d="M0,341.4c7.8-2.4,15.9-4,24-4.7c13-1.4,26.1-1.8,39.2-1c14,0.9,27.8,2.8,41.1,7.5c0.9,0.3,1.8,0.3,2.8,0.1
	c12.9-4.3,26.3-6.2,39.8-7.1c13.4-0.8,26.9-0.5,40.3,0.9c8.1,0.7,16.1,2.2,23.9,4.7c-0.7,1.2-1.5,2.3-2.4,3.4
	c-0.5,0.5-1.3,0.7-2,0.6c-10.1-3.5-20.6-4.4-31.1-4.5c-13.7-0.2-27.4,0.1-41,0.8c-9.3,0.4-18.4,2.2-27.2,5.3
	c-0.7,0.2-1.4,0.2-2.1,0.1c-19.2-6.1-39-7.2-58.9-7c-11.5,0.1-23,0.6-34.3,2.8c-2.3,0.4-4.5,1-6.7,1.8c-1.7,0.6-2.6,0.4-3.5-1.1
	C1.2,343.1,0.6,342.3,0,341.4z"/>
<path class="st0" d="M81.2,304.8c5.2,0,8.7,2.6,8.9,6.1c0.2,3.3-2.8,6.5-6.9,7.4c-2.5,0.6-5.1,0.2-7.4-1c-3.9-2.1-4.5-6.4-1.4-9.5
	C76.3,305.9,78.7,304.9,81.2,304.8z M86.2,312.1c0-3.4-2.2-5.9-5.1-5.9c-2.6,0-4.6,2.1-4.6,4.7c0,0.1,0,0.2,0,0.3c0,3.4,2.2,6,5.3,6
	C84.5,317.1,86.2,315.1,86.2,312.1L86.2,312.1z"/>
<path class="st0" d="M127.5,317.8c-4.3,0-7.8-2.5-8.2-5.8s2.4-6.8,6.6-7.5c2.3-0.4,4.7-0.2,6.9,0.5c4.6,1.7,5.5,7.1,1.6,10.2
	c-1.9,1.5-4.4,2.2-6.6,3.2L127.5,317.8z M132.9,311.3c0-3.4-2.2-5.9-5.1-6c-2.6,0-4.7,2.1-4.7,4.7c0,0.1,0,0.2,0,0.2
	c0,3.4,2.3,6.1,5.2,6.1C131,316.3,132.9,314.3,132.9,311.3z"/>
<path class="st0" d="M47.8,303.4c-0.3-2.2,0.7-3.9,2.6-4.4s3.7,0.1,4.4,2c1.2,3.1,2.1,6.4,3.1,9.5c0.3,1.2,0.7,2.4,1.2,3.6
	c0.5,0.9,1.3,1.7,2.4,2c0.7,0.1,1.6-0.9,2.4-1.5c0.3-0.2,0.6-0.4,0.8-0.7c0.8,1.5,0.3,3.4-1.2,4.2c-0.1,0-0.1,0.1-0.2,0.1
	c-1.7,1-3.9,0.5-4.9-1.2c0,0,0,0,0,0c-0.7-1.6-1.3-3.2-1.7-4.8c-0.3-0.9-0.6-1.8-1-3.1c-1.6,2.7-3.1,4.9-4.3,7.3
	c-1,2.1-2.5,2.8-4.9,2c2.4-3.8,4.7-7.6,7.1-11.4c0.9-1.1,1-2.7,0.3-3.9c-1.2-2.4-3.3-2.6-4.8-0.4c-0.2,0.5-0.3,1-0.4,1.5L47.8,303.4
	z"/>
<path class="st0" d="M156.1,303c1.7,0.4,3.3,0.8,4.9,1.4c0.6,0.2,0.9,1.2,1.1,2c0.1,0.3-0.5,1-0.6,1c-0.7-0.2-1.3-0.5-1.8-1
	c-3.2-3.2-9.7-1.7-11.2,2.5c-0.6,1.8-0.2,3.1,1.7,3.7c1.1,0.3,2.2,0.6,3.3,0.7c1.1,0.2,2.2,0.2,3.3,0.5c1.7,0.4,3.8,0.9,3.7,2.9
	c-0.1,1.5-0.9,2.9-2.1,3.8c-1.6,0.8-3.7,0.5-5.6,0.5c-0.2-0.5-0.3-1-0.3-1.5c0.5,0,1.2-0.3,1.5-0.1c1,1,2.5,1,3.5,0
	c0,0,0.1-0.1,0.1-0.1c0.6-0.6,0.9-1.3,0.8-2.1c-0.3-0.7-1-1.2-1.7-1.4c-1.2-0.2-2.4-0.3-3.6-0.3c-1.3,0-2.5-0.1-3.8-0.2
	c-4.5-0.8-5.8-4.3-3-7.9C148.8,304.5,152.2,303.3,156.1,303z"/>
<path class="st0" d="M105.6,313.2c0.9-2.1,1.9-4.2,2.6-6.3s2.2-2.7,4.6-2c-1.9,3.1-3.6,6.1-5.5,9c-1.1,1.4-1.6,3.2-1.4,5
	c0.1,1.2,0,2.4-0.5,3.5c-0.5,0.7-1.4,1.1-2.3,1.1c-0.4,0-1-1.2-1.1-2c-0.1-0.8,0.2-1.5,0.6-2.1c2.6-3.7,0.5-7.3-0.4-10.8
	c-0.3-0.7-1-1.3-1.8-1.4c-0.5,0-1.2,0.8-1.7,1.3c-0.3,0.3-0.5,0.6-1.2,1.2c-0.6-2.1-0.2-3.6,1.2-4.6s3.6-0.7,4.3,0.8
	C104.1,308.2,104.8,310.7,105.6,313.2z"/>
</svg>
