<?xml version="1.0" encoding="utf-8"?>
<!-- Generator: Adobe Illustrator 25.0.1, SVG Export Plug-In . SVG Version: 6.00 Build 0)  -->
<svg version="1.1" id="Layer_1" xmlns="http://www.w3.org/2000/svg" xmlns:xlink="http://www.w3.org/1999/xlink" x="0px" y="0px"
	 viewBox="0 0 566.9 566.9" style="enable-background:new 0 0 566.9 566.9;" xml:space="preserve">
<style type="text/css">
	.st0{fill:#0973D5;}
	.st1{fill:#FECA05;}
	.st2{fill:#FECE05;}
	.st3{fill:#0264C1;}
	.st4{fill:#0163C2;}
	.st5{fill:#2918A8;}
	.st6{fill:#FDFDFD;}
	.st7{fill:#FCFDFC;}
	.st8{fill:#2B14A6;}
	.st9{fill:#2B12A5;}
	.st10{fill:#2A14A6;}
	.st11{fill:#0777D7;}
	.st12{fill:#125AC8;}
	.st13{fill:#1A43BD;}
	.st14{fill:#0679D8;}
	.st15{fill:#1D3AB9;}
	.st16{fill:#0778D7;}
	.st17{fill:#0069D2;}
	.st18{fill:#006BD3;}
	.st19{fill:#006AD3;}
	.st20{fill:#FEFEFD;}
	.st21{fill:#FDFDFC;}
	.st22{fill:#0972D5;}
	.st23{fill:#2B13A6;}
</style>
<g>
	<path class="st0" d="M192,521c-7.3-0.7-14.1-3.6-21.1-5.5c-1.5-2.2-4.1-1.3-6-2.2c-1.1,0-2.2,0.3-3.1-0.6c-2.4-2-5.5-2.1-8.2-3.2
		c-1.5-0.5-3-1-4.5-1.5c-1.7-1.2-3.7-1.8-5.6-2.4c-17.1-6.2-33.3-14.1-47.8-25.3c-2.6-2-4.3-5.2-7.4-6.7c-0.9-2.4-2.9-3.9-4.8-5.4
		c-14.6-14.1-20.3-32.3-23.4-51.6c-5.7-35.4,2.7-68.8,14.9-101.7c10.3-27.7,23.3-54.3,31.7-82.7c2.5-8.4,4.5-17,5.2-25.7
		c0.3-3.6,1.5-5.3,5.5-5.1c4.5,0.2,9-0.5,13.5-0.5c103.5-0.1,207-0.1,310.6-0.4c5.8,0,7.4,1.7,8.3,7.3c4.5,27.6,15.3,53.3,26,79
		c9.4,22.7,18.6,45.5,23.7,69.7c0.3,1.4,0.3,3,0.5,4.4c1.4,2.7-0.4,5.9,1.3,8.5c0.2,0.9,0.5,1.7,0.7,2.6c0.4,12,0.5,24,0.6,36
		c0.3,0.3,0.2,0.6,0,0.9c-1.7,2.6,0.2,5.7-1.3,8.3c0.5,1.5-1.1,2.2-1.4,3.4c-1.3,2.3,0,4.9-1.2,7.2c-3,12.6-9.2,23.7-16.9,33.8
		c-14.8,19.6-35.3,31.7-57.2,41.9c-5,2.3-10.7,3.3-16,4.9c-3,1.6-6.3,2.4-9.5,3.5c-1.1,0.1-2.3,0.2-3.4,0.4
		c-2.2,1.5-4.9,1.5-7.3,2.5c-1.5,2.8-5.1,0.1-6.7,2.5c-2,1.2-4.5-0.2-6.4,1.3c-2.3,0.8-4.8,1.3-6.9,2.5l0.1,0c-3,1-6.3,0.8-9.1,2.6
		l0.1,0c-3.1,1-6.6,1-9.5,2.7c-10.6,3.9-21.5,6.9-31.8,11.8c-2.2,1-4.3,2.3-6.5,3.3c-10.6,6.7-20.8,13.7-28.2,24.2
		c-1.5,2.1-3.1,1.9-4.7-0.1c-8.7-11.2-20.7-18.3-32.8-24.8c-11.7-6.4-24.3-11.2-37.4-14.2c-2.8-0.6-4.7-2.8-7.6-2.9
		C197.9,522.1,194.9,521.6,192,521z"/>
	<path class="st1" d="M451.9,168.6c-0.4,1-0.8,2-1.2,3c-0.9,2.4-0.9,5.2-2.5,7.4c0,0.3-0.1,0.7-0.3,1c-2.9,1.9-6.1,1.8-9.3,1.8
		c-38.4-0.1-76.7,0.3-115.1-0.1c-10.2-0.1-20.5-0.8-30.6-0.6c-8,0.1-16.2,0.3-24.2,0.5c-29.8,0.6-59.7,0.4-89.5,0.2
		c-21.6-0.2-43.2,0.4-64.9,0c-0.8-0.1-1.6-0.2-2.4-0.4c-5.5-23.6-12.7-46.7-23.5-68.4c-4.4-8.8-9.3-17.3-14.2-25.8
		c-1.2-2-1.6-3.3,0.5-4.8c28.8-20.2,47.6-48.3,62.2-79.6c0.2-0.5,0.8-0.9,1.5-1.7c2.6,3.3,4.9,6.5,7.5,9.6
		C161,28,181.2,36.8,202.5,43.4c31.7,9.9,64.5,12.4,97.4,10.1c35.4-2.5,69.6-10.3,99.6-30.7c8.4-5.8,15.2-13.2,22.1-20.5
		c2.4-2.6,4.1-3.7,5.6,0.8c11.3,33.9,32.6,60.2,61.9,80.4c-1,1.9-1.9,3.9-3.5,5.4c-3.1,7.5-6.3,14.8-10.8,21.6
		c-1.7,2.5-2.1,5.6-4.2,7.9c-1.8,4.7-3.5,9.4-5.3,14.1c-1.8,1.3-1.7,3.6-2.9,5.2c0.1,2.7-0.5,5.1-2.7,6.9c-0.9,2.6-1.9,5.2-2.7,7.9
		c-0.1,0.9-0.1,1.9-0.2,2.8c-2,1.9-2,4.9-3.6,7.1c0,0.3,0,0.5-0.2,0.8C452.3,164.9,452.5,166.8,451.9,168.6z"/>
	<path class="st2" d="M448,180.9c-1.9,0.1-3.9,0.4-5.8,0.4c-108.8,0-217.5,0-326.3,0c-1.1,0-2.1-0.1-3.2-0.1c2-2,4.5-1.1,6.7-1.2
		c13.3-0.1,26.6,0,39.9,0c34.4,0,68.9,0.3,103.3-0.2c9.9-0.1,19.9-0.9,29.8-0.7c19.1,0.3,38.3,0.9,57.4,0.9
		c21.2,0,42.5,0.8,63.7-0.3c11.5-0.6,22.9,0.8,34.3,0.3C448.2,180.2,448.2,180.6,448,180.9z"/>
	<path class="st3" d="M502.3,407.9c-2.6-3-1.3-6.6-1.3-9.9c0.2-8.7-1.1-17.5,0.7-26.1C503.2,383.9,504,395.9,502.3,407.9z"/>
	<path class="st4" d="M83.4,468.2c3,0.6,4.7,2.3,4.8,5.4C86.3,472,84.2,470.6,83.4,468.2z"/>
	<path class="st5" d="M256.1,300.1c-2.8,15.1-5.4,28.5-7.9,41.9c-1.2,6.5-2.6,13-3.6,19.5c-0.5,3.1-1.9,3.6-4.7,3.8
		c-19.8,1.1-19.4,1.1-15.7-18.1c7-36,13.4-72.1,20-108.3c0.6-3.3,0.3-6.6,5.1-6.4c4.7,0.2,9.5-1.3,11.4,5.8
		c6.6,24.3,13.9,48.5,20.9,72.7c0.2,0.8,0.2,1.7,2.1,2.2c3.1-10.4,6.2-20.9,9.2-31.5c4.3-15,8.9-29.9,12.7-45
		c1.8-6.9,6.7-3.5,10.3-4.2c4-0.8,5,2.1,5.6,5.3c5.8,31.5,11.7,62.9,17.6,94.4c1.8,9.4,3.3,18.9,5.2,28.3c0.7,3.5-0.4,4.8-3.8,4.6
		c-1.5-0.1-3,0-4.5,0c-15.3,0-14.9-0.1-17.1-15.3c-2.2-15.6-5.3-31.1-8-46.6c-0.1-0.5-0.7-0.9-1.5-1.8
		c-6.4,19.4-12.6,38.4-18.9,57.4c-1,2.9-0.9,6.8-4.9,7.5c-4.1,0.7-7.5,0.5-9.2-5c-5.6-18.2-11.9-36.2-17.9-54.3
		C258,305.3,257.3,303.6,256.1,300.1z"/>
	<path class="st5" d="M157.7,365c-6,0.1-12,0-18,0.3c-4,0.2-5.1-1.4-5.1-5.2c0.1-41.1,0.1-82.2,0.1-123.3c0-1.5-0.3-3.1,1.2-4.1
		c1.2,2.2,0.6,4.6,0.6,6.9c0,37.3,0,74.6,0.1,111.9c0,2.1-0.4,4.3,0,5.6c0-14.6,0-29.9,0-45.2c0-23.6,0-47.2,0-70.8
		c0-8.7-0.7-7.9,8-7.9c1,0,2.1,0.6,2.8-0.7c5.5-2.5,11.4-1.5,17.1-1.1c10.6,0.7,21.3,1,31.3,5.8c8.7,4.2,14.9,10.4,18.1,19.6
		c4.7,13.4,2.1,39.3-11,50c-8.7,7.1-18.8,9.7-29.6,10.6c-4.3,0.4-8.6,0.1-12.8,0.2c-0.4,0.4-0.9,0.8-1.3,1.2
		c-0.3,0.5-0.6,1.1-0.7,1.7c-0.6,14.3,0.4,28.6-0.7,42.9C158.2,364.1,158.2,364.6,157.7,365z"/>
	<path class="st5" d="M378.3,365.1c-6.2,0-12.4,0-18.7,0.1c-3.4,0.1-4.5-1.3-4.5-4.5c0.1-41.5,0-83.1,0.1-124.6c0-1.3,0-2.6,1.3-3.4
		c5.3,1.4,10.7,0.7,15.9,0.5c4.9-0.2,6.5,1.9,6.5,6.4c0,5.1,0,10.3,0,15.4c0.1,35.9-0.1,71.8,0.1,107.8
		C379,363.7,378.8,364.4,378.3,365.1z"/>
	<path class="st5" d="M424.7,234c0,42.1,0,84.2,0.2,126.2c0,4-1.4,5.2-5.2,5.1c-6-0.3-12-0.1-18-0.1c-0.5-0.7-0.8-1.5-0.7-2.4
		c0.1-39.3,0-78.7,0.1-118c0-2.6-0.1-5.1,0.3-7.7c0.4-2.4,1.5-3.9,4.2-3.7C412,233.8,418.4,232.6,424.7,234z"/>
	<path class="st6" d="M205.8,475.6c4-6.8,6.8-12.1,10-17.1c1.5-2.4,1.3-4.1-0.5-6.2c-4.1-4.6-7.9-9.5-12.7-15.3
		c7,1.7,12.7,2.8,18.2,4.5c3.3,1,5.1,0.1,6.6-2.8c2.7-5.1,5.7-10,9.1-15.9c1.8,6.4,1.3,11.9,1.6,17.3c0.2,4.3,1.6,6.6,6.1,7.3
		c5,0.8,9.9,2.4,16.7,4.1c-5.7,2.6-9.9,4.9-14.3,6.4c-5,1.7-7.3,4.2-6.3,9.8c0.9,5,0.9,10.1,1.4,17.1c-4.3-5.2-7.7-9-10.6-13.1
		c-2.8-4-5.4-5.3-10-2.6C216.9,471.4,212.2,472.9,205.8,475.6z"/>
	<path class="st6" d="M320.3,460.5c-6-3.1-12-6.3-19.1-10c6.4-1.4,11.8-2.9,17.3-3.8c3.4-0.6,4.6-2.1,4.8-5.4
		c0.4-5.7,1.3-11.4,2.2-19.1c3.6,6.6,6.5,11.6,9.1,16.7c1.5,3,3.2,4,6.5,3c3.9-1.2,7.9-1.7,11.9-2.6c1.2-0.3,2.5-1.2,3.5,0.2
		c1.1,1.5-0.4,2.5-1.3,3.1c-11.5,8.6-11.6,18.1-3,28.8c0.6,0.8,2.3,2.2,0.8,4.3c-4.4-2.2-9.1-4.1-13.3-6.7c-3.8-2.3-6.3-2.1-9,1.7
		c-3.2,4.4-7.1,8.3-11.6,13.4c0.5-6.7,0.8-12,1.2-17.2C319,464.8,321,462.6,320.3,460.5z"/>
	<path class="st6" d="M439.9,405.4c-4.1,6.6-6.8,11.6-10.1,16.2c-2.3,3.2-1.9,5.5,0.6,8.3c3.6,4.2,6.9,8.7,11.4,14.4
		c-7.2-2-12.8-3.3-18.2-5.2c-3.1-1.1-4.7-0.2-6.2,2.5c-3,5.1-6.2,10.1-10.3,16.7c-0.3-7-0.8-12.2-0.7-17.4c0-5-1.6-7.8-7-8.7
		c-4.8-0.8-9.4-2.5-15.5-4.2c6.6-2.7,11.6-4.9,16.8-6.7c3.1-1.1,4.3-2.7,4-6.1c-0.4-5.7-0.1-11.4-0.1-18.3c4,5.1,7.6,9.4,10.9,14
		c2,2.8,3.9,3.2,7,1.8C427.5,410.3,432.8,408.3,439.9,405.4z"/>
	<path class="st7" d="M157.9,419.3c5.6,4.3,12.8,5.6,19.1,10.1c-5.8,1.3-10.9,2.9-16.2,3.6c-4.1,0.6-5.9,2.2-6.1,6.5
		c-0.2,5.5-1.1,11-1.9,18.4c-3.6-6.6-6.5-11.4-9-16.4c-1.5-2.9-3-4.1-6.5-3.1c-5.3,1.5-10.8,2.3-18,3.9c3.8-4.5,6.3-8.2,9.5-10.9
		c5.4-4.7,5.5-9.2,1.4-14.7c-2.4-3.2-4-7-5.2-12.1c4.8,2.3,9.8,4.2,14.4,6.9c3.6,2,5.7,1.2,8-1.8c3.4-4.3,7.1-8.4,11.7-13.7
		c-0.5,7-0.9,12.6-1.3,18.2C159.2,415.9,157.5,417.6,157.9,419.3z"/>
	<path class="st8" d="M424.7,234c-5.1,0-10.3,0.3-15.4-0.1c-5.1-0.4-6.5,1.4-6.5,6.5c0.2,35.7,0.2,71.4,0,107.2
		c0,5.4,1.3,11-1.1,16.4c-2-1.9-1.4-4.4-1.4-6.6c0-39.3,0-78.5,0-117.8c0-2.3-0.4-4.7,1.3-6.8C409.3,233.3,417.2,231.1,424.7,234z"
		/>
	<path class="st9" d="M378.3,364c-2.1-2.2-1.2-4.9-1.2-7.3c-0.1-38.2-0.2-76.5,0.1-114.7c0.1-6.8-2-8.5-8.3-8
		c-4.1,0.3-8.5,1.4-12.5-1.1c7.3,0,14.6,0,21.9-0.1c1.8,2.2,1.3,4.9,1.3,7.4c0,38.8,0,77.6,0,116.4
		C379.6,359.1,380.4,361.8,378.3,364z"/>
	<path class="st10" d="M147.4,232.7c0.8,0.1,1.7,0.2,2.6,0.3c-0.2,0.4-0.3,1-0.5,1c-12.3,0.6-12.3,0.6-12.3,12.9
		c0,36.4,0,72.8,0,109.2c0,2.1,0,4.2,0,6.3c-0.4,0-0.9,0-1.3,0c0-43.2,0-86.4,0-129.6C139.8,232.7,143.6,232.7,147.4,232.7z"/>
	<path class="st11" d="M400.4,365.2c-2-1.6-1.3-3.9-1.3-6c0-40.2,0-80.3,0-120.5c0-2-0.7-4.3,1.3-6c1,1.6,0.6,3.3,0.6,5
		c0,40.8,0,81.7,0,122.5C400.9,361.9,401.3,363.7,400.4,365.2z"/>
	<path class="st12" d="M400.4,365.2c0-44.2,0-88.3,0-132.5c0.4,0,0.9,0,1.3,0c0.1,43.7,0.1,87.5,0.2,131.2c-0.1,0.4-0.1,0.8,0,1.2
		C401.3,365.2,400.8,365.2,400.4,365.2z"/>
	<path class="st13" d="M378.3,364c0-43.7,0.1-87.5,0.1-131.2c0.4,0,0.9,0,1.3,0c1,1.6,0.6,3.3,0.6,5c0,40.8,0,81.7,0,122.5
		c0,1.7,0.4,3.4-0.7,5c-0.4,0-0.9-0.1-1.3-0.1C378.4,364.7,378.4,364.4,378.3,364z"/>
	<path class="st14" d="M379.6,365.3c0-44.2,0-88.4,0.1-132.5c2.1,1.9,1.2,4.4,1.3,6.7c0.1,39.8,0.1,79.5,0,119.3
		C380.9,360.9,381.8,363.4,379.6,365.3z"/>
	<path class="st15" d="M157.9,317.6c0.4,0,0.9,0,1.3,0c0.8,15.9,1.2,31.7-0.2,47.6c-0.4-0.1-0.9-0.1-1.3-0.2c0-0.4,0-0.7,0-1.1
		C157,348.5,156.8,333.1,157.9,317.6z"/>
	<path class="st16" d="M159,365.2c0.1-15.9,0.1-31.7,0.2-47.6c0.4-0.1,0.8,0,1.2,0c0,13.6,0,27.3,0,40.9
		C160.4,360.9,161.3,363.4,159,365.2z"/>
	<path class="st17" d="M320.3,460.5c2.2,2.1,0.2,4.3,0,6.4C318.5,464.8,318.5,462.6,320.3,460.5z"/>
	<path class="st18" d="M402.6,397.7c0,2,0,4,0,7.6C401.3,401.7,401.5,399.7,402.6,397.7z"/>
	<path class="st19" d="M157.9,419.3c-1.9-1.7-0.2-3.4,0-5.1C159.7,415.9,159.7,417.6,157.9,419.3z"/>
	<path class="st20" d="M295.7,151.6c-5.5-4.1-11-8.1-16.3-12.4c-2.3-1.8-3.9-1.8-6.1,0c-5.9,4.6-11.9,9-19,14.3
		c2.6-8.3,4.5-15.3,6.9-22.1c1.4-3.9,0.5-6.1-2.9-8.5c-5.8-3.9-11.1-8.4-18-13.6c8.7,0,15.7-0.2,22.7,0.1c3.6,0.1,5.4-0.9,6.4-4.6
		c1.9-7,4.2-13.9,6.9-22.6c2.1,6.7,3.8,11.9,5.4,17.1c3,10,3,10,13.7,10c4.5,0,9,0,13.5,0c0.4,0,0.9,0.1,3,0.3
		c-6.4,4.9-11.8,9.2-17.4,13.1c-3.6,2.4-4.7,4.7-3,9c2.4,6.3,4,12.9,5.9,19.4C296.8,151.2,296.2,151.4,295.7,151.6z"/>
	<path class="st21" d="M219.7,137.8c-3.8-2.8-7.1-4.6-9.5-7.1c-3.9-4-7-3.4-10.7,0.1c-2.4,2.3-5.4,4.1-9.6,7.3
		c1.7-5.4,2.5-9.4,4.1-13.1c1.8-4.2,0.7-6.7-3-8.9c-3.2-2-6.1-4.5-9.2-6.8c0.7-0.6,1-1.1,1.2-1.1c14,2.9,20.6-3.6,22.3-17.2
		c1.3,4,2.9,7.8,3.7,11.9c0.8,4.3,3,5.6,7.1,5.2c3.8-0.3,7.6-0.1,13.3-0.1c-3.4,2.7-5.3,4.7-7.7,5.8c-6.9,3.5-8,8.4-4.7,15
		C218.2,131.2,218.6,134,219.7,137.8z"/>
	<path class="st21" d="M372.2,107.9c-0.4,2.3-1.8,2.6-2.7,3.4c-10.7,8.2-10.7,8.2-6.8,20.9c0.4,1.4,0.8,2.8,1.5,5.5
		c-4-3-7.5-5-10.2-7.7c-3.4-3.3-5.9-2.7-9.2,0.1c-2.8,2.4-5.5,5.2-9.4,6.3c-0.1-0.9-0.2-1.3-0.1-1.6c1.4-5.3,6-10.8,3.6-15.6
		c-2.2-4.3-8-6.8-13.7-11.3c5.7,0,9.8-0.2,13.8,0.1c3.6,0.3,5.5-1,6.3-4.6c0.9-4.1,2.5-8.2,4.2-13.7c1.7,5.3,3.3,9.3,4.2,13.4
		c0.9,3.9,2.8,5.2,6.7,4.9C364.2,107.7,368.1,107.9,372.2,107.9z"/>
	<path class="st21" d="M161.7,135.5c-0.5,0-0.7,0.1-0.9,0.1c-4.7-2.1-7.8-8.5-12.6-7.7c-4.5,0.8-8.4,5.5-13.2,8.9
		c-0.6-4.5,1.3-7.9,2.5-11.3c1.6-4.3,1.2-7.2-3-9.6c-3.1-1.8-5.8-4.4-8.5-7.9c3.7,0,7.4-0.4,11,0.1c4.6,0.6,6.6-1.4,7.5-5.6
		c0.8-3.7,2.2-7.3,3.6-11.5c3,3.8,3.4,7.9,4.3,11.7c1,4.5,3.2,5.9,7.6,5.4c3.6-0.4,7.2-0.1,12.8-0.1c-4.7,3.6-7.8,6.3-11.2,8.5
		c-3.3,2.1-3.9,4.4-2.5,8C160.6,128,162.3,131.5,161.7,135.5z"/>
	<path class="st21" d="M434.3,107.9c-0.2,2.3-1.5,2.9-2.5,3.4c-8.1,4.5-12.9,10.1-7.2,19.6c0.6,1,1,2.7-0.2,3.6
		c-1.2,1-2.6,0-3.4-0.9c-6.8-8.3-13.1-5.8-19.4,0.7c-0.8,0.8-1.8,1.9-3.6,1.3c-0.1-3.8,1.6-7.4,2.9-10.9c1.5-3.9,0.8-6.3-2.8-8.5
		c-3.2-2-6.1-4.6-8.9-8.2c4.1,0,8.2-0.2,12.3,0.1c3.3,0.2,5-0.9,5.8-4.3c0.9-4.1,2.5-8.1,4-12.8c2.7,3.8,3.4,7.8,4.3,11.5
		c1,4.3,2.8,6.2,7.4,5.6C426.7,107.6,430.3,107.9,434.3,107.9z"/>
	<path class="st22" d="M159.1,274.3c0-4.1,0.3-8.2-0.1-12.2c-0.6-5.8,1.2-8.2,7.3-7.5c3.9,0.4,7.6,1,11.3,2.1
		c11,3.2,14.5,8.4,13.8,19.8c-0.6,9.8-5.7,15-16.1,16.8c-16.3,2.8-16.3,2.8-16.3-13.2C159.1,278.2,159.1,276.2,159.1,274.3z"/>
	<path class="st9" d="M157.9,317.6c0,15.4-0.1,30.9-0.1,46.3c-0.5-0.8-6.5,2.1-1.7-2.6c0.9-0.9,0.5-3.3,0.5-5c0-10.9,0-21.8,0-32.8
		C156.6,321.6,155.9,319.3,157.9,317.6z"/>
	<path class="st23" d="M157.5,257.5c0,11.4,0,22.9,0,34.3c-0.2,0-0.4,0-0.6,0c0-11.5,0-22.9,0-34.4
		C157.1,257.5,157.3,257.5,157.5,257.5z"/>
</g>
</svg>
