<?xml version="1.0" encoding="utf-8"?>
<!-- Generator: Adobe Illustrator 25.0.1, SVG Export Plug-In . SVG Version: 6.00 Build 0)  -->
<svg version="1.1" id="Layer_1" xmlns="http://www.w3.org/2000/svg" xmlns:xlink="http://www.w3.org/1999/xlink" x="0px" y="0px"
	 viewBox="0 0 850.4 518" style="enable-background:new 0 0 850.4 518;" xml:space="preserve">
<style type="text/css">
	.st0{fill:#FFFFFF;}
</style>
<g>
	<path class="st0" d="M801.1,121.9c-28.5-42-29.5-42.1-59.1-2.5c-15.7-10.8-29.6-25.4-48.5-30.3c-24.1-6.3-44.1-17.6-58.8-37.8
		c-1.9,1.7-3.9,3.4-5.8,5.1c8.1,12.3,10.9,21.1-9.8,21.4c-25.4,0.4-49.1,9-68.8,24.4c-14.6,11.4-23.7,13.3-31.7-5.3
		c-5.9-13.8-12.5-14-23.8-3.3c-69,65.3-73.7,181.3-9.4,250.4c10.2,11,23.2,23.5,37.5,19.1c35.4-10.8,67.6,4.2,101.3,7.1
		c22.2,1.9,44.4-0.1,64.6-9.6c11.9-5.6,21.5-4.7,33.4-0.1c27.2,10.5,49.8,2.7,68.3-19.7C843.2,276.9,847.6,190.3,801.1,121.9z
		 M746.7,152.2c14.2,23.7,22.6,46,20.4,71.6C713.6,194.6,713.6,194.6,746.7,152.2z M527.5,145.1c10.4,16,19.9,30.4,29.7,45.4
		c-19.8,11-37.1,23.9-51.4,40.9C496,206,502.4,179.6,527.5,145.1z M486.4,256c1.2,11.6-5.6,24-8.7,36.1
		c-33-60-25.4-116.3,14.2-168.9c3.4-4.5,6.1-16.7,15.4-7.8c4.9,4.7,13,11.6,6,21C486.2,172.3,481.8,212.7,486.4,256z M494.3,282.9
		c16.3,23.1,28.6,44.4,55.4,61.6C499.5,350.2,485.2,333.5,494.3,282.9z M647.7,353.4c-23.4,4-37.1,2.3-65.1-8.5
		c16.3-16.2,32.1-32.1,42.7-52.1c2.4-4.6,2.2-14.7,11.8-11.5c7.8,2.6,3,11.4,5.9,16.7c3-1.1,3.9-0.1,2.6,2.8
		c17.5,10.5,25.2,30,42.2,42.5C674,351.3,661.4,354.3,647.7,353.4z M710.9,331.4c-5.7,3.9-10.8-0.3-14.7-3.8
		c-22-19.7-41.6-41.4-44.7-72.3c-1-9.9-2.6-14.7-13.8-14.7c-11.3,0-17.3,2.7-16.5,15.1c0.7,11.5-5.5,21.1-11.4,30.2
		c-12.7,19.7-26.1,50.2-48.9,45.4c-26.8-5.6-42.7-35-53.1-62.3c-2.9-7.7-1-13.9,3.5-20.3c12.3-17.4,26.3-34.3,46.7-41
		c24.6-8.1,20.2-20.5,9.9-36.1c-2.5-3.8-6.2-7.3-7.4-11.5c-3.7-12.6-27.2-21-13.3-35.9c18.3-19.7,43.8-29.8,71.4-30.5
		c10.3-0.3,0.9,13.8,13.8,17.8c-0.5-20.9,12.6-20.6,26.9-16.9c11.4,2.9,23.1,5.9,33.7,10.9c41.9,19.5,43.9,24.9,18.3,62
		c-14.4,20.9-20,34.2,11.3,45.5c19.2,7,42.5,21.4,39,46.6C757.4,290.6,736.8,313.8,710.9,331.4z M778.5,329
		c-13.5,16.6-29.3,23.7-54.8,14.8c22.9-20.9,40-42.6,52.6-70.9C782.4,293.6,793.8,310.2,778.5,329z M783.1,222.2
		c2.3-25.8-5.3-51-20.3-72.1c-10.5-14.7-3.9-26.4,5.7-32.5c11.8-7.5,15.3,8.6,19.7,15.4c32,49.5,38.6,101.3,12.2,159.1
		C787.7,267.7,781,246.7,783.1,222.2z"/>
	<path class="st0" d="M279.5,74.4c-22.9-1.1-45.9,0.4-68.8-0.5c-15.8-0.6-21.1,6.1-20.7,21.2c0.7,25.6,0.2,51.2,0.2,76.7
		c0,23.7,1.2,47.6-0.4,71.2c-1.4,21,4.9,27.4,27.3,28.5c28.4,1.4,33.2-11.2,30-33.7c-3.4-23.6,1-36.1,30.4-34.2
		c38.3,2.5,65-25.1,66-61.5C344.4,104.4,318.4,76.2,279.5,74.4z M264.6,158.6c-15.6,1.7-18.8-6-17.9-19.2
		c0.7-10.4-1.7-22.2,13.5-17.6c15.7-1.2,26.6,3,26.8,18.3C287.2,153.8,276.9,157.3,264.6,158.6z"/>
	<path class="st0" d="M107.9,74.4c-22.8-1.2-45.8,0.5-68.6-0.5c-17.5-0.8-21.8,7.1-21.2,23c1,25.5,0.3,51,0.3,76.5
		c0,26.4,0,52.8,0,79.2c0,8.2-0.5,15.6,11.2,18.1c34.2,7.3,46.4-0.3,44.1-33.7c-1.7-25.4,4.2-34.9,32-33.3
		c37.8,2.2,64.8-25.5,66.1-61.4C173,105.6,146.1,76.4,107.9,74.4z M89.9,158.8c-14.2,0.7-16.6-6.4-16.3-18.3
		c0.3-12-0.5-23.3,15.4-18.8c15.9-1.6,26.1,4.3,26,18.6C114.9,155.2,103.1,158.1,89.9,158.8z"/>
	<path class="st0" d="M421.6,254.2c0.3,22-15.2,16.6-26.6,16c-11.6-0.7-29.9,8.4-29.7-15.9c0.3-28.3,0.1-56.6,0.1-84.8
		c0-25.5,0.7-51.1-0.2-76.6c-0.9-22.8,15-18.5,28.1-18.6c13.1,0,28.6-4.1,28.4,18.4C421,146.5,421,200.3,421.6,254.2z"/>
	<path class="st0" d="M421.3,351.9c-0.2,6.4,3.4,15.7-8.5,16.7c-7.6,0.6-14.6,0.1-19.1-7.4c-6.3-10.6-12.8-21-23.3-38.1
		c0,16.7-0.3,25.4,0.1,34.2c0.3,7.9-2.4,11.5-10.9,11.6c-8.3,0.1-11.7-3-11.7-11c0.1-19.2-0.2-38.4,0.1-57.5
		c0.1-5.7-2.7-14.1,7.6-14.2c7-0.1,14.9-2.7,20,5.1c5.8,9,11.7,18.1,17.5,27.1c1.7-0.3,3.3-0.6,5-0.9c0-4.3-0.2-8.7,0-13.1
		c0.4-8.4-3.3-19.1,12.1-18.7c15.8,0.4,10.7,11.8,11,19.7C421.9,320.8,421.8,336.3,421.3,351.9z"/>
	<path class="st0" d="M81.2,320.3c-2.3-32.8-3.8-32.7-39.1-35.4c-30.4-2.3-23.4,16.6-23.8,32.8c-0.1,2.7,0,5.5,0,8.2
		c0,3.6-0.7,7.5,0.1,10.9c2.7,10.5-8.2,27.5,7.7,30.5c16.2,3.1,35.1,6.8,50.6-4.8C92.8,350.4,82.2,335.1,81.2,320.3z M52.9,303.5
		c1.3,1.3,5.1,3.5,5.4,6c0.7,5.2-3.6,7.5-8.4,7.5c-3.7,0-7.1-2-7.3-6.1C42.1,305.3,45.7,303.4,52.9,303.5z M61.6,342
		c-0.6,6.9-6.4,8.1-11.9,7.6c-4.9-0.4-8.1-3.7-7.2-9.2c0.9-5.9,5.8-5.7,9.4-6C57.5,334.9,62,336.4,61.6,342z"/>
	<path class="st0" d="M232.5,297.6c-14.9-17-35-11.2-53.6-12c-8.4-0.4-10.9,4.6-10.8,12c0.1,19.9,0,39.8,0.1,59.7
		c0,7.7,3.5,11.5,11.6,11.3c6.9-0.2,12.6-1.1,13.2-9.8c0.3-5.3,1.6-10.6,3.3-21c10.6,20.5,18.3,36.7,40.5,30.4
		C219.6,345.7,236.2,321.1,232.5,297.6z M202.5,320.7c-4.8,0.8-9,0-9.5-5.9c-0.3-4.3-0.3-9.3,5.3-10.3c6.1-1.2,9.8,2.4,11.6,5.9
		C211,318.1,207.2,319.9,202.5,320.7z"/>
	<path class="st0" d="M157.9,357.1c0,7.8-3.3,11.9-11.5,11.5c-0.9-0.1-1.8,0.1-2.7,0c-15.9-2-41.7,7.6-45.8-4.8
		c-7.4-22.1-7.3-49.7-0.9-72.3c3.9-13.7,27.8-3.9,42.6-5.6c5.4-0.6,13.8-3.7,16,5.3c1.8,7.2,2,14.6-9.1,15.6
		c-8.6,0.8-18-3.4-26.6,4.3c7.8,12.5,29.8-2.7,28.3,16.2c-1.5,18.3-23.2,1.3-31.7,14.1c7.9,10.6,19.6,4,29,5.3
		C152.6,347.6,157.9,348.5,157.9,357.1z"/>
	<path class="st0" d="M69.5,427.3c-2.4-3.6-0.4-6.6,0.8-10.1c6.3-18.9-5.1-24.5-20.7-26.3c-31.3-3.6-31.4-3.5-31.4,37.1
		c2.7,9.2-6.6,25.3,5.4,30.8c12.5,5.7,29.4,5.4,42.4-2.9C77.3,448.7,76.6,437.9,69.5,427.3z M36,410.8c0.9-5.9,5.8-5.7,9.4-6
		c5.7,0.4,10.3,1.9,9.8,7.6c-0.6,6.9-6.4,8.1-11.9,7.6C38.4,419.5,35.1,416.3,36,410.8z M55.4,442.5c-0.6,6.9-6.4,8.1-11.9,7.6
		c-4.9-0.4-8.1-3.7-7.2-9.2c0.9-5.9,5.8-5.7,9.4-6C51.3,435.3,55.8,436.8,55.4,442.5z"/>
	<path class="st0" d="M292.7,419.7c0.3,13.4,7.3,29.2-5.3,40.4c-5.4,4.8-12-1-35-29c-2.4-1.3-2.8-0.2-3.8,2.1
		c-4.1,8.9,6.7,26.5-9.8,26.7c-19.5,0.2-7.7-18-10.6-27.8c-1.2-4.2-1-9.2,0-13.6c2-9-6.4-21.9,5.8-26.7c15.1-6,19.5,8.9,26.6,17.8
		c3.3,4.1,6.6,8.2,11,13.6c9.3-11.5-5.2-30.9,12.2-31.1C302.7,391.7,292.5,410.3,292.7,419.7z"/>
	<path class="st0" d="M508.4,442.3c-0.5,6.4,4.2,15.6-6.3,18.2c-8.1,2-13.8-2.5-18.3-9.1c-5-7.4-10.5-14.4-16.1-21.9
		c-2.1,2.2-3.4,3.1-4.1,4.4c-4.3,8.6,7.3,26-10.3,26.1c-17.5,0.1-10.2-16.9-9.6-25.6c1.1-14.3-10-35.2,6.4-41.9
		c18.9-7.8,21.7,17.1,32.6,26.6c1.2,1.1,3.1,1.3,7.4,3.1c0.2-4.7-0.2-7.5,0.6-10c2.3-7.3-6.7-20.9,9.1-20.7
		c15.7,0.1,7.6,13.5,8.6,20.9C509.6,422.1,509.1,432.3,508.4,442.3z"/>
	<path class="st0" d="M551.9,391c-28.4-0.5-31.6,0.1-27.8,21c3,16.6-20.5,47.1,19.5,48.7c30.6,1.2,31.8-1.7,32.3-48.1
		C576.1,390.8,560.9,391.3,551.9,391z M555.9,440.9c-0.6,4.4-4.4,4.8-7.7,4.8c-3.6,0-7.1-1.1-6.4-5.9c0.6-4.2,3.8-5.1,7.8-5
		C552.4,435.7,556.5,436.1,555.9,440.9z M555.9,413.5c-0.6,4.4-4.4,4.8-7.7,4.8c-3.6,0-7.1-1.1-6.4-5.9c0.6-4.2,3.8-5.1,7.8-5
		C552.4,408.4,556.5,408.8,555.9,413.5z"/>
	<path class="st0" d="M791,407.9c1.4-16.3-16.8-18.5-30.6-17.2c-21.2,2.1-33.1,14.6-32.8,36.1c0.3,22.1,14.9,31.4,34.5,35.3
		c10.7-0.7,18.7-5.9,27.5-11.1C812.2,437.3,789.8,422.2,791,407.9z M769.2,436.4c3.4,2.7-1.8,5.6-4,7.5c-3.2,2.9-6.7,2-9.5-1
		c-7-7.4-14.5-14.9-6.8-25.9c8.9-12.7,18.9-11.6,29.3-1.6C774.3,422.4,747.1,418.6,769.2,436.4z"/>
	<path class="st0" d="M136.9,430.1c7.8-10.1,6.9-22.6-3.1-32.2c-12.1-11.5-28.1-8.8-41.6-6.2c-15.3,3-5.5,18.1-7.7,27.5
		c-1.2,5.2-1.1,11,0,16.2c1.8,8.6-6.9,21.3,8.2,24.9c15.1,3.6,8.4-14.7,16.4-19.3c10.1,9.8,15.9,25.4,35.1,17.8
		C144.3,448.3,126.1,444,136.9,430.1z M112.7,423.2c-5.5,0.4-8.3-2.3-7.7-9.7c0.6-3.7,3.8-6.6,9-4.7c3,1.1,6.9,3.9,7.3,6.5
		C122.2,420.7,117.5,422.8,112.7,423.2z"/>
	<path class="st0" d="M714.2,429.3c8.1-10,6.6-22.8-3.8-31.9c-12.5-11-28.6-8.5-42-5.4c-12.3,2.9-4.5,17-6.1,26.1
		c-1.1,6.2-1.1,12.9,0,19.1c1.4,8-6.2,19.6,6.8,23.2c16,4.4,7.2-16,17.3-18.8c9.6,8.6,15,25.1,33.7,17.9
		C721.2,448,703.2,443,714.2,429.3z M693.9,423.3c-8.6,0.3-12.6-1.5-12.8-7.1c-0.1-5.2,3-8.1,8.5-8.1c5.2,0,9.5,2.8,9.8,7.4
		C699.7,420.2,695.7,423.3,693.9,423.3z"/>
	<path class="st0" d="M193.2,394.5c-4.8-7.8-16.5-5.7-21.3,5.3c-6.5,14.9-13,29.8-19.3,44.7c-2,4.7-6.4,10.1-1.3,14.5
		c4.3,3.8,11.1,3.1,15.2-0.6c13.3-12.2,24.9-9.8,38,0.9c3.7,3,14.4,5.9,16.3-6.2C211.7,433.5,204.4,412.8,193.2,394.5z M186.8,433
		c-4.8,0.8-9,0-9.5-5.9c-0.3-4.3-0.3-9.3,5.3-10.3c6.1-1.2,9.8,2.4,11.6,5.9C195.3,430.4,191.5,432.3,186.8,433z"/>
	<path class="st0" d="M318.5,391.7c-21.5,4.9-8,25.4-9.9,38.6c-1.4,9.5-7,25.2,5.6,29.2c14.3,4.5,31.3,3.8,44.3-7
		c5.3-4.4,8.3-11.6,12.4-17.6c0.1-5.6,0.1-11.1,0.2-16.7C362.9,391.2,340.8,386.7,318.5,391.7z M337.8,442.5
		c-13.5,1.6-11.4-7.9-11.6-16.5c2-5.9-4.9-17.4,9-17.6c11.1-0.2,16.5,7.3,16.8,17.4C352.2,434.6,347.9,441.3,337.8,442.5z"/>
	<path class="st0" d="M431.5,452.4c-0.7,11.2-9.6,8.3-16.3,8.6c-10.8,0.5-21.6,0.5-32.4,0.7c-5.9-23.5-3.9-47.2-1.5-70.9
		c12.4,0,24.9,0.5,37.2-0.3c13.5-0.8,14.4,6.4,12.3,16.5c-10.7,0.7-21.5,1.4-38.9,2.6c14.8,10.8,24.7,7.1,33.7,8.2
		c9.1,29.5-20,9.8-25.8,20.4c4.2,6.2,11.1,3.2,16.9,3.6C424.1,442.3,432.2,441.4,431.5,452.4z"/>
	<path class="st0" d="M647.7,419.2c-0.3,34.9-21.3,52.4-45.8,38.2c-12.3-7.1-21.6-52.3-12.5-62.8c1.9-2.2,6.3-3,9.6-3.3
		c5.8-0.4,7.7,3.7,7.8,8.7c0.1,10.1,0.3,20.1,0.2,30.2c0,7.4,3.1,12.9,10.8,12.9c7.4,0,11.2-5.1,11.2-12.7c0-7.3-0.3-14.7,0.2-21.9
		c0.5-7.3-3.7-18.3,10.4-17.2c11.6,0.9,7.2,10.5,8.1,16.9C648.1,411.8,647.7,415.5,647.7,419.2z"/>
	<path class="st0" d="M299.1,359.8c0.2,7.2-4.6,9.1-10.8,9c-14.7-0.1-29.3-0.2-44-0.3c-0.3-27.3-0.6-54.6-0.8-82
		c17.7-5,24.3,0.4,23.8,19.8c-0.4,17.4-12.6,45.4,25.7,40.8C300.4,346.3,299,354.7,299.1,359.8z"/>
	<path class="st0" d="M332.4,297.6c-0.2,10-0.1,20-0.1,30c0,10-0.1,20,0,30c0.1,7.8-3.1,11.1-11.4,11.2c-8.1,0-11.7-2.8-11.6-10.9
		c0.1-20,0.4-40-0.1-60c-0.2-9.6,3.7-12.5,12.9-12.4C331,285.7,332.6,290.3,332.4,297.6z"/>
	<path class="st0" d="M634.7,24.2v27.1c-3.1,0.4-5.1,2-5.8,5.1C616.3,44.4,624,34.4,634.7,24.2z"/>
	<path class="st0" d="M645.6,300.7c1.5,12.5-1.7,24.4-3.9,36.5c-0.6,3-1.1,6.1-1.5,9.2c-10-16.8-22.2-33.7,2.8-48.4
		C646,296.9,646.9,297.8,645.6,300.7z"/>
	<path class="st0" d="M581.4,145.9c20.7,23.7,38.2,43.7,57,65.2c18.2-21.6,35.4-42,55-65.2H581.4z M638.1,188.8
		c-8-9.2-14.5-16.7-23.4-26.8h43.2C655.7,172.6,646.2,178.4,638.1,188.8z"/>
</g>
</svg>
