<?xml version="1.0" encoding="utf-8"?>
<!-- Generator: Adobe Illustrator 25.0.1, SVG Export Plug-In . SVG Version: 6.00 Build 0)  -->
<svg version="1.1" id="Layer_1" xmlns="http://www.w3.org/2000/svg" xmlns:xlink="http://www.w3.org/1999/xlink" x="0px" y="0px"
	 viewBox="0 0 1910.3 648" style="enable-background:new 0 0 1910.3 648;" xml:space="preserve">
<style type="text/css">
	.st0{fill:#FFFFFF;}
</style>
<g>
	<path class="st0" d="M1508.6,148.6c-41.5-61.2-43-61.3-86.1-3.6c-22.9-15.7-43.1-37-70.7-44.1c-35.1-9.2-64.2-25.6-85.7-55.1
		c-2.8,2.5-5.7,5-8.4,7.4c11.8,17.9,15.9,30.7-14.3,31.2c-37,0.6-71.5,13.1-100.2,35.5c-21.3,16.6-34.5,19.4-46.2-7.7
		c-8.6-20.1-18.2-20.4-34.7-4.8c-100.5,95.1-107.4,264.1-13.7,364.8c14.9,16,33.8,34.2,54.6,27.8c51.6-15.7,98.5,6.1,147.6,10.3
		c32.3,2.8,64.7-0.1,94.1-14c17.3-8.2,31.3-6.8,48.7-0.1c39.6,15.3,72.5,3.9,99.5-28.7C1570,374.4,1576.4,248.2,1508.6,148.6z
		 M1429.4,192.7c20.7,34.5,32.9,67,29.7,104.3C1381.2,254.5,1381.2,254.5,1429.4,192.7z M1110,182.4c15.2,23.3,29,44.3,43.3,66.1
		c-28.8,16-54,34.8-74.9,59.6C1064.2,271.1,1073.5,232.6,1110,182.4z M1050.2,343.9c1.7,16.9-8.2,35-12.7,52.6
		c-48.1-87.4-37-169.4,20.7-246.1c5-6.6,8.9-24.3,22.4-11.4c7.1,6.8,18.9,16.9,8.7,30.6C1049.9,222,1043.5,280.8,1050.2,343.9z
		 M1061.7,383.1c23.7,33.7,41.7,64.7,80.7,89.7C1069.3,481.2,1048.4,456.8,1061.7,383.1z M1285.2,485.8c-34.1,5.8-54,3.4-94.8-12.4
		c23.7-23.6,46.8-46.8,62.2-75.9c3.5-6.7,3.2-21.4,17.2-16.8c11.4,3.8,4.4,16.6,8.6,24.3c4.4-1.6,5.7-0.1,3.8,4.1
		c25.5,15.3,36.7,43.7,61.5,61.9C1323.5,482.8,1305.1,487.1,1285.2,485.8z M1377.2,453.8c-8.3,5.7-15.7-0.4-21.4-5.5
		c-32-28.7-60.6-60.3-65.1-105.3c-1.5-14.4-3.8-21.4-20.1-21.4c-16.5,0-25.2,3.9-24,22c1,16.8-8,30.7-16.6,44
		c-18.5,28.7-38,73.1-71.2,66.1c-39-8.2-62.2-51-77.4-90.8c-4.2-11.2-1.5-20.2,5.1-29.6c17.9-25.3,38.3-50,68-59.7
		c35.8-11.8,29.4-29.9,14.4-52.6c-3.6-5.5-9-10.6-10.8-16.8c-5.4-18.4-39.6-30.6-19.4-52.3c26.7-28.7,63.8-43.4,104-44.4
		c15-0.4,1.3,20.1,20.1,25.9c-0.7-30.4,18.4-30,39.2-24.6c16.6,4.2,33.7,8.6,49.1,15.9c61,28.4,64,36.3,26.7,90.3
		c-21,30.4-29.1,49.8,16.5,66.3c28,10.2,61.9,31.2,56.8,67.9C1445,394.3,1415,428.1,1377.2,453.8z M1475.7,450.3
		c-19.7,24.2-42.7,34.5-79.8,21.6c33.4-30.4,58.3-62.1,76.6-103.3C1481.4,398.7,1498,422.9,1475.7,450.3z M1482.4,294.7
		c3.4-37.6-7.7-74.3-29.6-105c-15.3-21.4-5.7-38.5,8.3-47.3c17.2-10.9,22.3,12.5,28.7,22.4c46.6,72.1,56.2,147.6,17.8,231.8
		C1489.1,361,1479.3,330.4,1482.4,294.7z"/>
	<path class="st0" d="M748.8,79.4c-33.4-1.6-66.9,0.6-100.2-0.7c-23-0.9-30.7,8.9-30.2,30.9c1,37.3,0.3,74.6,0.3,111.7
		c0,34.5,1.7,69.3-0.6,103.7c-2,30.6,7.1,39.9,39.8,41.5c41.4,2,48.4-16.3,43.7-49.1c-5-34.4,1.5-52.6,44.3-49.8
		c55.8,3.6,94.7-36.6,96.1-89.6C843.3,123.1,805.4,82,748.8,79.4z M727.1,202c-22.7,2.5-27.4-8.7-26.1-28c1-15.2-2.5-32.3,19.7-25.6
		c22.9-1.7,38.8,4.4,39,26.7C760,195,745,200.1,727.1,202z"/>
	<path class="st0" d="M498.8,79.4c-33.2-1.7-66.7,0.7-99.9-0.7c-25.5-1.2-31.8,10.3-30.9,33.5c1.5,37.1,0.4,74.3,0.4,111.4
		c0,38.5,0,76.9,0,115.4c0,11.9-0.7,22.7,16.3,26.4c49.8,10.6,67.6-0.4,64.2-49.1c-2.5-37,6.1-50.8,46.6-48.5
		c55.1,3.2,94.4-37.1,96.3-89.4C593.6,124.8,554.4,82.3,498.8,79.4z M472.6,202.3c-20.7,1-24.2-9.3-23.7-26.7
		c0.4-17.5-0.7-33.9,22.4-27.4c23.2-2.3,38,6.3,37.9,27.1C509,197.1,491.8,201.3,472.6,202.3z"/>
	<path class="st0" d="M955.8,341.3c0.4,32-22.1,24.2-38.8,23.3c-16.9-1-43.6,12.2-43.3-23.2c0.4-41.2,0.1-82.5,0.1-123.5
		c0-37.1,1-74.4-0.3-111.6c-1.3-33.2,21.9-27,40.9-27.1c19.1,0,41.7-6,41.4,26.8C954.9,184.4,954.9,262.8,955.8,341.3z"/>
	<path class="st0" d="M955.3,483.6c-0.3,9.3,5,22.9-12.4,24.3c-11.1,0.9-21.3,0.1-27.8-10.8c-9.2-15.4-18.6-30.6-33.9-55.5
		c0,24.3-0.4,37,0.1,49.8c0.4,11.5-3.5,16.8-15.9,16.9c-12.1,0.1-17-4.4-17-16c0.1-28-0.3-55.9,0.1-83.8c0.1-8.3-3.9-20.5,11.1-20.7
		c10.2-0.1,21.7-3.9,29.1,7.4c8.4,13.1,17,26.4,25.5,39.5c2.5-0.4,4.8-0.9,7.3-1.3c0-6.3-0.3-12.7,0-19.1
		c0.6-12.2-4.8-27.8,17.6-27.2c23,0.6,15.6,17.2,16,28.7C956.2,438.3,956.1,460.9,955.3,483.6z"/>
	<path class="st0" d="M459.9,437.6c-3.4-47.8-5.5-47.6-57-51.6c-44.3-3.4-34.1,24.2-34.7,47.8c-0.1,3.9,0,8,0,11.9
		c0,5.2-1,10.9,0.1,15.9c3.9,15.3-11.9,40.1,11.2,44.4c23.6,4.5,51.1,9.9,73.7-7C476.8,481.4,461.3,459.2,459.9,437.6z M418.7,413.1
		c1.9,1.9,7.4,5.1,7.9,8.7c1,7.6-5.2,10.9-12.2,10.9c-5.4,0-10.3-2.9-10.6-8.9C402.9,415.7,408.2,413,418.7,413.1z M431.3,469.2
		c-0.9,10.1-9.3,11.8-17.3,11.1c-7.1-0.6-11.8-5.4-10.5-13.4c1.3-8.6,8.4-8.3,13.7-8.7C425.4,458.9,431.9,461.1,431.3,469.2z"/>
	<path class="st0" d="M680.3,404.5c-21.7-24.8-51-16.3-78.1-17.5c-12.2-0.6-15.9,6.7-15.7,17.5c0.1,29,0,58,0.1,87
		c0,11.2,5.1,16.8,16.9,16.5c10.1-0.3,18.4-1.6,19.2-14.3c0.4-7.7,2.3-15.4,4.8-30.6c15.4,29.9,26.7,53.5,59,44.3
		C661.5,474.6,685.7,438.8,680.3,404.5z M636.6,438.2c-7,1.2-13.1,0-13.8-8.6c-0.4-6.3-0.4-13.5,7.7-15c8.9-1.7,14.3,3.5,16.9,8.6
		C649,434.4,643.4,437,636.6,438.2z"/>
	<path class="st0" d="M571.6,491.2c0,11.4-4.8,17.3-16.8,16.8c-1.3-0.1-2.6,0.1-3.9,0c-23.2-2.9-60.7,11.1-66.7-7
		c-10.8-32.2-10.6-72.4-1.3-105.3c5.7-20,40.5-5.7,62.1-8.2c7.9-0.9,20.1-5.4,23.3,7.7c2.6,10.5,2.9,21.3-13.3,22.7
		c-12.5,1.2-26.2-5-38.8,6.3c11.4,18.2,43.4-3.9,41.2,23.6c-2.2,26.7-33.8,1.9-46.2,20.5c11.5,15.4,28.6,5.8,42.2,7.7
		C563.9,477.4,571.6,478.7,571.6,491.2z"/>
	<path class="st0" d="M442.8,593.5c-3.5-5.2-0.6-9.6,1.2-14.7c9.2-27.5-7.4-35.7-30.2-38.3c-45.6-5.2-45.7-5.1-45.7,54
		c3.9,13.4-9.6,36.9,7.9,44.9c18.2,8.3,42.8,7.9,61.8-4.2C454.2,624.7,453.2,608.9,442.8,593.5z M394,569.4
		c1.3-8.6,8.4-8.3,13.7-8.7c8.3,0.6,15,2.8,14.3,11.1c-0.9,10.1-9.3,11.8-17.3,11.1C397.5,582.1,392.7,577.5,394,569.4z
		 M422.3,615.6c-0.9,10.1-9.3,11.8-17.3,11.1c-7.1-0.6-11.8-5.4-10.5-13.4c1.3-8.6,8.4-8.3,13.7-8.7
		C416.3,605.1,422.9,607.3,422.3,615.6z"/>
	<path class="st0" d="M768,582.4c0.4,19.5,10.6,42.5-7.7,58.9c-7.9,7-17.5-1.5-51-42.2c-3.5-1.9-4.1-0.3-5.5,3.1
		c-6,13,9.8,38.6-14.3,38.9c-28.4,0.3-11.2-26.2-15.4-40.5c-1.7-6.1-1.5-13.4,0-19.8c2.9-13.1-9.3-31.9,8.4-38.9
		c22-8.7,28.4,13,38.8,25.9c4.8,6,9.6,11.9,16,19.8c13.5-16.8-7.6-45,17.8-45.3C782.6,541.6,767.7,568.7,768,582.4z"/>
	<path class="st0" d="M1082.2,615.3c-0.7,9.3,6.1,22.7-9.2,26.5c-11.8,2.9-20.1-3.6-26.7-13.3c-7.3-10.8-15.3-21-23.5-31.9
		c-3.1,3.2-5,4.5-6,6.4c-6.3,12.5,10.6,37.9-15,38c-25.5,0.1-14.9-24.6-14-37.3c1.6-20.8-14.6-51.3,9.3-61
		c27.5-11.4,31.6,24.9,47.5,38.8c1.7,1.6,4.5,1.9,10.8,4.5c0.3-6.8-0.3-10.9,0.9-14.6c3.4-10.6-9.8-30.4,13.3-30.2
		c22.9,0.1,11.1,19.7,12.5,30.4C1084,585.9,1083.2,600.8,1082.2,615.3z"/>
	<path class="st0" d="M1145.6,540.6c-41.4-0.7-46,0.1-40.5,30.6c4.4,24.2-29.9,68.6,28.4,70.9c44.6,1.7,46.3-2.5,47.1-70.1
		C1180.8,540.3,1158.7,541,1145.6,540.6z M1151.4,613.3c-0.9,6.4-6.4,7-11.2,7c-5.2,0-10.3-1.6-9.3-8.6c0.9-6.1,5.5-7.4,11.4-7.3
		C1146.3,605.7,1152.3,606.3,1151.4,613.3z M1151.4,573.4c-0.9,6.4-6.4,7-11.2,7c-5.2,0-10.3-1.6-9.3-8.6c0.9-6.1,5.5-7.4,11.4-7.3
		C1146.3,565.9,1152.3,566.5,1151.4,573.4z"/>
	<path class="st0" d="M1493.9,565.2c2-23.7-24.5-27-44.6-25.1c-30.9,3.1-48.2,21.3-47.8,52.6c0.4,32.2,21.7,45.7,50.3,51.4
		c15.6-1,27.2-8.6,40.1-16.2C1524.8,608,1492.2,586,1493.9,565.2z M1462.2,606.7c5,3.9-2.6,8.2-5.8,10.9c-4.7,4.2-9.8,2.9-13.8-1.5
		c-10.2-10.8-21.1-21.7-9.9-37.7c13-18.5,27.5-16.9,42.7-2.3C1469.6,586.3,1430,580.8,1462.2,606.7z"/>
	<path class="st0" d="M541,597.6c11.4-14.7,10.1-32.9-4.5-46.9c-17.6-16.8-40.9-12.8-60.6-9c-22.3,4.4-8,26.4-11.2,40.1
		c-1.7,7.6-1.6,16,0,23.6c2.6,12.5-10.1,31,11.9,36.3s12.2-21.4,23.9-28.1c14.7,14.3,23.2,37,51.1,25.9
		C551.8,624.1,525.3,617.8,541,597.6z M505.8,587.5c-8,0.6-12.1-3.4-11.2-14.1c0.9-5.4,5.5-9.6,13.1-6.8c4.4,1.6,10.1,5.7,10.6,9.5
		C519.6,583.9,512.8,586.9,505.8,587.5z"/>
	<path class="st0" d="M1382,596.4c11.8-14.6,9.6-33.2-5.5-46.5c-18.2-16-41.7-12.4-61.2-7.9c-17.9,4.2-6.6,24.8-8.9,38
		c-1.6,9-1.6,18.8,0,27.8c2,11.7-9,28.6,9.9,33.8c23.3,6.4,10.5-23.3,25.2-27.4c14,12.5,21.9,36.6,49.1,26.1
		C1392.2,623.6,1366,616.3,1382,596.4z M1352.5,587.6c-12.5,0.4-18.4-2.2-18.6-10.3c-0.1-7.6,4.4-11.8,12.4-11.8
		c7.6,0,13.8,4.1,14.3,10.8C1360.9,583.1,1355.1,587.6,1352.5,587.6z"/>
	<path class="st0" d="M623,545.7c-7-11.4-24-8.3-31,7.7c-9.5,21.7-18.9,43.4-28.1,65.1c-2.9,6.8-9.3,14.7-1.9,21.1
		c6.3,5.5,16.2,4.5,22.1-0.9c19.4-17.8,36.3-14.3,55.4,1.3c5.4,4.4,21,8.6,23.7-9C650,602.5,639.4,572.4,623,545.7z M613.7,601.8
		c-7,1.2-13.1,0-13.8-8.6c-0.4-6.3-0.4-13.5,7.7-15c8.9-1.7,14.3,3.5,16.9,8.6C626.1,598,620.6,600.8,613.7,601.8z"/>
	<path class="st0" d="M805.6,541.6c-31.3,7.1-11.7,37-14.4,56.2c-2,13.8-10.2,36.7,8.2,42.5c20.8,6.6,45.6,5.5,64.5-10.2
		c7.7-6.4,12.1-16.9,18.1-25.6c0.1-8.2,0.1-16.2,0.3-24.3C870.3,540.9,838.1,534.3,805.6,541.6z M833.7,615.6
		c-19.7,2.3-16.6-11.5-16.9-24c2.9-8.6-7.1-25.3,13.1-25.6c16.2-0.3,24,10.6,24.5,25.3C854.7,604.1,848.4,613.9,833.7,615.6z"/>
	<path class="st0" d="M970.2,630c-1,16.3-14,12.1-23.7,12.5c-15.7,0.7-31.5,0.7-47.2,1c-8.6-34.2-5.7-68.8-2.2-103.3
		c18.1,0,36.3,0.7,54.2-0.4c19.7-1.2,21,9.3,17.9,24c-15.6,1-31.3,2-56.7,3.8c21.6,15.7,36,10.3,49.1,11.9
		c13.3,43-29.1,14.3-37.6,29.7c6.1,9,16.2,4.7,24.6,5.2C959.4,615.3,971.2,614,970.2,630z"/>
	<path class="st0" d="M1285.2,581.7c-0.4,50.8-31,76.3-66.7,55.6c-17.9-10.3-31.5-76.2-18.2-91.5c2.8-3.2,9.2-4.4,14-4.8
		c8.4-0.6,11.2,5.4,11.4,12.7c0.1,14.7,0.4,29.3,0.3,44c0,10.8,4.5,18.8,15.7,18.8c10.8,0,16.3-7.4,16.3-18.5
		c0-10.6-0.4-21.4,0.3-31.9c0.7-10.6-5.4-26.7,15.2-25.1c16.9,1.3,10.5,15.3,11.8,24.6C1285.7,570.9,1285.2,576.3,1285.2,581.7z"/>
	<path class="st0" d="M777.3,495.1c0.3,10.5-6.7,13.3-15.7,13.1c-21.4-0.1-42.7-0.3-64.1-0.4c-0.4-39.8-0.9-79.5-1.2-119.5
		c25.8-7.3,35.4,0.6,34.7,28.8c-0.6,25.3-18.4,66.1,37.4,59.4C779.2,475.5,777.2,487.7,777.3,495.1z"/>
	<path class="st0" d="M825.8,404.5c-0.3,14.6-0.1,29.1-0.1,43.7s-0.1,29.1,0,43.7c0.1,11.4-4.5,16.2-16.6,16.3
		c-11.8,0-17-4.1-16.9-15.9c0.1-29.1,0.6-58.3-0.1-87.4c-0.3-14,5.4-18.2,18.8-18.1C823.8,387.2,826.1,393.9,825.8,404.5z"/>
	<path class="st0" d="M1266.2,6.2v39.5c-4.5,0.6-7.4,2.9-8.4,7.4C1239.4,35.7,1250.6,21.1,1266.2,6.2z"/>
	<path class="st0" d="M1282.1,409c2.2,18.2-2.5,35.5-5.7,53.2c-0.9,4.4-1.6,8.9-2.2,13.4c-14.6-24.5-32.3-49.1,4.1-70.5
		C1282.7,403.5,1284,404.8,1282.1,409z"/>
	<path class="st0" d="M1188.6,183.5c30.2,34.5,55.6,63.7,83,95c26.5-31.5,51.6-61.2,80.1-95H1188.6z M1271.2,246
		c-11.7-13.4-21.1-24.3-34.1-39h62.9C1296.8,222.4,1283,230.9,1271.2,246z"/>
</g>
</svg>
